<?xml version="1.0" encoding="UTF-8"?>
<svg id="Layer_2" data-name="Layer 2" xmlns="http://www.w3.org/2000/svg" viewBox="0 0 78.57 58.28">
  <defs>
    <style>
      .cls-1 {
        fill: #8cd5cf;
      }

      .cls-2 {
        fill: #163c5b;
      }
    </style>
  </defs>
  <g id="Layer_1-2" data-name="Layer 1">
    <g>
      <g>
        <polygon class="cls-2" points="61.11 23.85 61.11 37.16 61.98 38.04 61.98 46.81 53.3 55.49 45.11 55.49 43.46 53.85 24.61 53.85 22.97 55.49 2.73 55.49 2.73 45.81 5.96 42.58 5.96 35.22 2.73 31.99 2.73 14.06 8.48 14.06 9.41 14.99 39.22 14.99 40.15 14.06 61.98 14.06 61.98 22.97 61.11 23.85"/>
        <path class="cls-1" d="m53.99,57.41H.99c-.07,0-.13-.06-.13-.13v-12.11s.01-.07.04-.09l3.2-3.2v-5.83l-3.2-3.2s-.04-.06-.04-.09V8.58s.01-.07.04-.09L5.75,3.63s.06-.04.09-.04h39.49s.07.01.09.04l8.65,8.65h9.62c.07,0,.13.06.13.13v35.18s-.01.07-.04.09l-9.69,9.69s-.06.04-.09.04Zm-52.88-.26h52.82l9.62-9.62V12.54h-9.54s-.07-.01-.09-.04l-8.65-8.65H5.89L1.12,8.63v24.09l3.2,3.2s.04.06.04.09v5.93s-.01.07-.04.09l-3.2,3.2v11.93Z"/>
        <g>
          <polygon class="cls-1" points="54.01 12.41 .99 12.41 .99 8.58 5.84 3.73 45.33 3.73 54.01 12.41"/>
          <path class="cls-1" d="m54.01,12.54H.99c-.07,0-.13-.06-.13-.13v-3.83s.01-.07.04-.09L5.75,3.63s.06-.04.09-.04h39.49s.07.01.09.04l8.68,8.68s.05.09.03.14c-.02.05-.07.08-.12.08Zm-52.89-.26h52.58l-8.43-8.43H5.89L1.12,8.63v3.65Z"/>
        </g>
        <path class="cls-1" d="m65.49,30.77l-.18-.18,5.76-5.76V7.37s.01-.07.04-.09l3.65-3.65.18.18-3.61,3.61v17.45s-.01.07-.04.09l-5.8,5.8Z"/>
        <g>
          <polygon class="cls-1" points="57.35 12.41 48.67 3.73 47.36 3.73 56.05 12.41 57.35 12.41"/>
          <path class="cls-1" d="m57.66,12.54h-1.67l-8.94-8.94h1.67l8.94,8.94Zm-1.56-.26h.94l-8.43-8.43h-.94l8.43,8.43Z"/>
        </g>
        <g>
          <polygon class="cls-1" points="60.78 12.41 52.09 3.73 50.79 3.73 59.47 12.41 60.78 12.41"/>
          <path class="cls-1" d="m61.09,12.54h-1.67l-8.94-8.94h1.67l8.94,8.94Zm-1.56-.26h.94l-8.43-8.43h-.94l8.43,8.43Z"/>
        </g>
        <g>
          <polygon class="cls-1" points="9.26 12.41 39.37 12.41 38.51 13.27 10.12 13.27 9.26 12.41"/>
          <path class="cls-1" d="m38.51,13.4H10.12s-.07-.01-.09-.04l-.86-.86s-.05-.09-.03-.14c.02-.05.07-.08.12-.08h30.1c.05,0,.1.03.12.08.02.05,0,.1-.03.14l-.86.86s-.06.04-.09.04Zm-28.33-.26h28.27l.6-.6H9.58l.6.6Z"/>
        </g>
        <g>
          <polygon class="cls-1" points="63.68 23.7 63.68 37.31 62.82 36.45 62.82 24.56 63.68 23.7"/>
          <path class="cls-1" d="m63.68,37.44s-.07-.01-.09-.04l-.86-.86s-.04-.06-.04-.09v-11.89s.01-.07.04-.09l.86-.86s.09-.05.14-.03c.05.02.08.07.08.12v13.61c0,.05-.03.1-.08.12-.02,0-.03,0-.05,0Zm-.73-1.04l.6.6v-12.99l-.6.6v11.79Z"/>
        </g>
        <path class="cls-1" d="m.9,26.51l-.86-.86s-.04-.06-.04-.09v-8.91s.01-.07.04-.09l.86-.86.18.18-.82.82v8.8l.82.82-.18.18Z"/>
        <g>
          <path class="cls-1" d="m76.56,3.51c-.39,0-.77-.15-1.07-.44-.59-.59-.59-1.54,0-2.13.59-.59,1.54-.59,2.13,0,.59.59.59,1.54,0,2.13-.29.29-.68.44-1.07.44Zm0-2.76c-.32,0-.64.12-.88.37-.49.49-.49,1.28,0,1.77.49.49,1.28.49,1.77,0,.49-.49.49-1.28,0-1.77-.24-.24-.56-.37-.88-.37Z"/>
          <rect class="cls-1" x="77.19" y="1.88" width="1.38" height=".26"/>
          <rect class="cls-1" x="76.44" y="2.67" width=".26" height="1.38"/>
          <rect class="cls-1" x="76.44" width=".26" height="1.38"/>
          <rect class="cls-1" x="74.53" y="1.88" width="1.38" height=".26"/>
        </g>
        <path class="cls-1" d="m5.53,4.18s-.07-.01-.09-.04c-.05-.05-.05-.13,0-.18l1.52-1.52h6.16l.86-.86h17.42c.07,0,.13.06.13.13s-.06.13-.13.13H14.08l-.86.86h-6.16l-1.45,1.45s-.06.04-.09.04Z"/>
        <rect class="cls-1" x="65.27" y="28.18" width=".26" height="4.64"/>
        <g>
          <polygon class="cls-1" points=".99 42.74 .99 35.2 2.5 36.72 2.5 41.22 .99 42.74"/>
          <path class="cls-1" d="m.99,42.87s-.03,0-.05,0c-.05-.02-.08-.07-.08-.12v-7.54c0-.05.03-.1.08-.12.05-.02.1,0,.14.03l1.52,1.52s.04.06.04.09v4.51s-.01.07-.04.09l-1.52,1.52s-.06.04-.09.04Zm.13-7.36v6.92l1.26-1.26v-4.4l-1.26-1.26Z"/>
        </g>
        <g>
          <rect class="cls-1" x="33.64" y="1.23" width=".26" height="1.03"/>
          <rect class="cls-1" x="32.85" y="1.23" width=".26" height="1.03"/>
          <rect class="cls-1" x="32.06" y="1.23" width=".26" height="1.03"/>
          <rect class="cls-1" x="31.26" y="1.23" width=".26" height="1.03"/>
        </g>
      </g>
      <g>
        <g>
          <polygon class="cls-1" points="22.36 58.15 22.36 57.29 25.74 57.28 24.88 58.14 22.36 58.15"/>
          <path class="cls-1" d="m22.23,58.27v-1.12h3.82s-1.12,1.12-1.12,1.12h-2.71Zm.26-.86v.6h2.34s.6-.6.6-.6h-2.94Z"/>
        </g>
        <g>
          <rect class="cls-1" x="19.42" y="57.29" width="1.91" height=".86"/>
          <path class="cls-1" d="m19.29,58.28v-1.12h2.17s0,1.12,0,1.12h-2.17Zm.26-.86v.6h1.65v-.6h-1.65Z"/>
        </g>
        <g>
          <rect class="cls-1" x="16.48" y="57.29" width="1.91" height=".86"/>
          <path class="cls-1" d="m16.35,58.28v-1.12h2.17s0,1.12,0,1.12h-2.17Zm.26-.86v.6h1.65v-.6h-1.65Z"/>
        </g>
        <g>
          <polygon class="cls-1" points="12.92 58.15 12.06 57.29 15.45 57.29 15.45 58.15 12.92 58.15"/>
          <path class="cls-1" d="m12.87,58.28l-1.12-1.12h3.82s0,1.11,0,1.11h-2.71Zm-.49-.86l.6.6h2.34v-.6h-2.94Z"/>
        </g>
      </g>
      <g>
        <g>
          <path class="cls-1" d="m25.32,55.57h9.71c.67.67,1.05,1.05,1.72,1.72h-13.15c.67-.67,1.05-1.05,1.72-1.72Z"/>
          <path class="cls-1" d="m36.76,57.41h-13.15c-.05,0-.1-.03-.12-.08-.02-.05,0-.1.03-.14l1.72-1.72s.06-.04.09-.04h9.71s.07.01.09.04l1.72,1.72s.05.09.03.14c-.02.05-.07.08-.12.08Zm-12.84-.26h12.53l-1.46-1.46h-9.61l-1.46,1.46Z"/>
        </g>
        <g>
          <polygon class="cls-1" points="36.83 55.57 38.55 57.28 39.33 57.28 37.61 55.57 36.83 55.57"/>
          <path class="cls-1" d="m39.64,57.41h-1.14l-1.98-1.98h1.14l1.98,1.98Zm-1.03-.26h.41l-1.46-1.46h-.41l1.46,1.46Z"/>
        </g>
        <g>
          <polygon class="cls-1" points="39.4 55.57 41.12 57.28 41.9 57.28 40.18 55.57 39.4 55.57"/>
          <path class="cls-1" d="m42.21,57.41h-1.14l-1.98-1.98h1.14l1.98,1.98Zm-1.03-.26h.41l-1.46-1.46h-.41l1.46,1.46Z"/>
        </g>
        <g>
          <polygon class="cls-1" points="41.97 55.57 43.69 57.28 44.47 57.28 42.75 55.57 41.97 55.57"/>
          <path class="cls-1" d="m44.78,57.41h-1.14l-1.98-1.98h1.14l1.98,1.98Zm-1.03-.26h.41l-1.46-1.46h-.41l1.46,1.46Z"/>
        </g>
      </g>
    </g>
  </g>
</svg>