<?xml version="1.0" encoding="UTF-8"?>
<svg id="Layer_2" data-name="Layer 2" xmlns="http://www.w3.org/2000/svg" viewBox="0 0 86.72 33.07">
  <defs>
    <style>
      .cls-1 {
        fill: #8cd5cf;
      }

      .cls-2 {
        fill: #163c5b;
      }
    </style>
  </defs>
  <g id="Layer_1-2" data-name="Layer 1">
    <g>
      <g>
        <path class="cls-1" d="m.6,20.67h-.26s.02-5,.02-5c0-.03.01-.07.04-.09l4.44-4.44s.06-.04.09-.04l23.17-.14v.26s-23.12.14-23.12.14L.62,15.72l-.02,4.94Z"/>
        <path class="cls-1" d="m57.16,32.94h-5.13v-.26h5.07l4.37-4.37.07-11.65h.26s-.07,11.71-.07,11.71c0,.03-.01.07-.04.09l-4.44,4.44s-.06.04-.09.04Z"/>
        <path class="cls-1" d="m56.45,31.22H5.57s-.07-.01-.09-.04l-3.44-3.44s-.04-.06-.04-.09l.07-11.27s.01-.07.04-.09l3.44-3.44s.06-.04.09-.04h54.31s.07.01.09.04c.02.02.04.06.04.09l-.07,14.71s-.01.07-.04.09l-3.44,3.44s-.06.04-.09.04Zm-50.82-.26h50.77l3.36-3.36.07-14.53H5.7l-3.36,3.36-.07,11.17,3.36,3.36Z"/>
        <polygon class="cls-2" points="55.74 29.37 58.17 26.94 58.24 14.66 6.35 14.66 3.92 17.09 3.86 26.94 6.29 29.37 55.74 29.37"/>
        <g>
          <polygon class="cls-1" points="29.43 31.09 27.71 32.81 7.23 32.81 5.51 31.09 29.43 31.09"/>
          <path class="cls-1" d="m27.76,32.94H7.18l-1.98-1.98h24.54l-1.98,1.98Zm-20.48-.26h20.37l1.46-1.46H5.83l1.46,1.46Z"/>
        </g>
        <g>
          <g>
            <path class="cls-1" d="m42.37,11.23h-.26V2.11s.01-.07.04-.09c.02-.02.06-.04.09-.04h0l40.17.12v.26s-40.04-.12-40.04-.12v8.99Z"/>
            <rect class="cls-1" x="38.32" y="11.1" width="7.83" height=".26"/>
          </g>
          <path class="cls-1" d="m86.6,4.45h-4.19c-.07,0-.13-.06-.13-.13V.13c0-.07.06-.13.13-.13h4.19c.07,0,.13.06.13.13v4.19c0,.07-.06.13-.13.13Zm-4.06-.26h3.93V.26h-3.93v3.93Z"/>
          <rect class="cls-1" x="83.5" y="1.22" width="2.01" height="2.01"/>
        </g>
        <g>
          <polygon class="cls-1" points="49.58 12.94 51.29 11.23 59.94 11.21 59.96 12.94 49.58 12.94"/>
          <path class="cls-1" d="m59.96,13.07h-10.38c-.05,0-.1-.03-.12-.08-.02-.05,0-.1.03-.14l1.72-1.72s.06-.04.09-.04h8.65s0-.01,0-.01c.07,0,.13.06.13.13v1.73s0,.07-.03.09c-.02.02-.06.04-.09.04Zm-10.07-.26h9.94v-1.47s-8.48.01-8.48.01l-1.46,1.46Z"/>
        </g>
        <g>
          <polygon class="cls-1" points="31.88 12.96 32.74 12.1 50.89 12.1 51.74 12.96 31.88 12.96"/>
          <path class="cls-1" d="m51.74,13.09h-19.87c-.05,0-.1-.03-.12-.08-.02-.05,0-.1.03-.14l.86-.86s.06-.04.09-.04h18.15s.07.01.09.04l.86.86s.05.09.03.14c-.02.05-.07.08-.12.08Zm-19.56-.26h19.24l-.6-.6h-18.04l-.6.6Z"/>
        </g>
        <g>
          <g>
            <polygon class="cls-1" points="32.66 32.81 34.38 31.09 35.15 31.09 33.43 32.81 32.66 32.81"/>
            <path class="cls-1" d="m33.49,32.94h-1.14l1.98-1.98h1.14l-1.98,1.98Zm-.52-.26h.41l1.46-1.46h-.41l-1.46,1.46Z"/>
          </g>
          <g>
            <polygon class="cls-1" points="29.8 32.81 31.52 31.09 32.29 31.09 30.57 32.81 29.8 32.81"/>
            <path class="cls-1" d="m30.63,32.94h-1.14l1.98-1.98h1.14l-1.98,1.98Zm-.52-.26h.41l1.46-1.46h-.41l-1.46,1.46Z"/>
          </g>
        </g>
      </g>
      <path class="cls-1" d="m58.12,18.53v-4.06s-4.07,0-4.07,0v-.26s4.19,0,4.19,0h0s.07.01.09.04c.02.02.04.06.04.09v4.19s-.25,0-.25,0Z"/>
      <path class="cls-1" d="m51.56,32.56c0,.28.23.51.52.51.28,0,.51-.23.51-.52,0-.28-.23-.51-.52-.51s-.51.23-.51.52Z"/>
      <g>
        <polygon class="cls-1" points="24.57 10.8 25.3 10.07 28.1 10.07 28.11 10.8 24.57 10.8"/>
        <path class="cls-1" d="m24.57,10.93c-.05,0-.1-.03-.12-.08s0-.1.03-.14l.73-.73s.06-.04.09-.04h2.8s0,0,0,0c.07,0,.13.06.13.13v.73s0,.07-.03.09-.06.04-.09.04h-3.53Zm.78-.73l-.47.47h3.09s0-.47,0-.47h-2.62Z"/>
      </g>
      <rect class="cls-1" x="0" y="20.58" width="1.03" height=".26" transform="translate(-.16 0) rotate(-.44)"/>
      <rect class="cls-1" x="0" y="21.37" width="1.03" height=".26" transform="translate(-.18 0) rotate(-.47)"/>
      <rect class="cls-1" x=".01" y="22.17" width="1.03" height=".26" transform="translate(-.17 0) rotate(-.44)"/>
      <rect class="cls-1" x=".02" y="22.96" width="1.03" height=".26" transform="translate(-.18 0) rotate(-.44)"/>
      <rect class="cls-1" x="61.17" y="16.1" width="1.03" height=".26" transform="translate(-.12 .48) rotate(-.44)"/>
    </g>
  </g>
</svg>