<?xml version="1.0" encoding="UTF-8"?>
<svg id="Layer_2" data-name="Layer 2" xmlns="http://www.w3.org/2000/svg" viewBox="0 0 70.73 67.42">
  <defs>
    <style>
      .cls-1 {
        fill: #8cd5cf;
      }

      .cls-2 {
        fill: #163c5b;
      }
    </style>
  </defs>
  <g id="Layer_1-2" data-name="Layer 1">
    <g>
      <g>
        <g>
          <path class="cls-1" d="m66.69,1.64l-.25-.07c.1-.38.3-.72.57-.99.27-.27.62-.47.99-.57l.07.25c-.33.09-.64.26-.88.51-.24.24-.42.55-.51.88Z"/>
          <path class="cls-1" d="m68.01,4.29c-.38-.1-.72-.3-.99-.57-.27-.27-.47-.62-.57-1l.25-.07c.09.33.26.64.51.88.24.24.55.42.88.51l-.07.25Z"/>
          <path class="cls-1" d="m69.16,4.29l-.07-.25c.33-.09.64-.26.88-.51.24-.24.42-.55.51-.88l.25.07c-.1.38-.3.72-.57.99-.27.27-.62.47-1,.57Z"/>
          <path class="cls-1" d="m70.48,1.64c-.09-.33-.26-.64-.51-.88-.24-.24-.55-.42-.88-.51l.07-.25c.38.1.72.3.99.57.27.27.47.62.57,1l-.25.07Z"/>
        </g>
        <path class="cls-1" d="m68.59,3.32c-.65,0-1.17-.53-1.17-1.17s.53-1.17,1.17-1.17,1.17.53,1.17,1.17-.53,1.17-1.17,1.17Zm0-2.09c-.51,0-.92.41-.92.92s.41.92.92.92.92-.41.92-.92-.41-.92-.92-.92Z"/>
      </g>
      <g>
        <path class="cls-1" d="m44.09,65.69H14.78s-.09-.02-.11-.06L.02,40.24s-.02-.09,0-.13L14.67,14.73s.07-.06.11-.06h29.31s.09.02.11.06l14.65,25.38s.02.09,0,.13l-14.65,25.38s-.07.06-.11.06Zm-29.23-.26h29.16l14.58-25.25-14.58-25.25H14.86L.28,40.18l14.58,25.25Z"/>
        <polygon class="cls-2" points="56.76 40.18 43.1 63.84 39.16 63.84 38.3 62.98 25.2 62.98 24.34 63.84 15.77 63.84 2.11 40.18 15.77 16.52 24.42 16.52 25.28 17.38 33.89 17.38 34.75 16.52 43.1 16.52 56.76 40.18"/>
        <polygon class="cls-1" points="29.71 13.01 29.46 13.01 29.46 8.97 36.41 2.02 67.48 2.02 67.48 2.27 36.52 2.27 29.71 9.07 29.71 13.01"/>
        <path class="cls-1" d="m37.71,14.71l-.86-.86s-.06-.04-.09-.04h-13.13s-.03,0-.04,0l-.87-.87h-7.01s-.94,0-.94,0c-.05,0-.09.02-.11.06l-6.49,11.24s-.02.06-.01.1l.31,1.17c.01.05.06.09.11.09,0,0,.01,0,.02,0,.05,0,.09-.02.11-.06l6.1-10.63h7.96s0,0,0,0h14.85c.05,0,.1-.03.12-.08.02-.05,0-.1-.03-.14Z"/>
        <path class="cls-1" d="m48.88,59.07l-.31-1.17c-.01-.05-.06-.09-.11-.09-.05,0-.1.02-.13.06l-4.33,7.57h-24.9s1.98,1.98,1.98,1.98h22.01s.94,0,.94,0h0s.09-.02.11-.06l4.72-8.18s.02-.06.01-.1Z"/>
        <path class="cls-1" d="m34.1,2.99l-.18-.18,1.82-1.82s.06-.04.09-.04h2.58v.26h-2.52l-1.78,1.78Z"/>
        <g>
          <polygon class="cls-1" points="37.64 64.57 31 64.57 29.89 65.69 38.76 65.69 37.64 64.57"/>
          <polygon class="cls-1" points="29.29 64.57 28.17 65.69 28.92 65.69 30.04 64.57 29.29 64.57"/>
          <polygon class="cls-1" points="27.57 64.57 26.46 65.69 27.21 65.69 28.32 64.57 27.57 64.57"/>
          <polygon class="cls-1" points="25.86 64.57 24.74 65.69 25.49 65.69 26.61 64.57 25.86 64.57"/>
        </g>
        <path class="cls-1" d="m33.18,15.79h-7.19s-.07-.01-.09-.04l-.86-.86.18-.18.82.82h7.08l.82-.82.18.18-.86.86s-.06.04-.09.04Z"/>
        <rect class="cls-1" x="12.21" y="28.48" width="34.46" height=".26"/>
      </g>
    </g>
  </g>
</svg>