<?xml version="1.0" encoding="UTF-8"?>
<svg id="Layer_2" data-name="Layer 2" xmlns="http://www.w3.org/2000/svg" viewBox="0 0 109.47 61">
  <defs>
    <style>
      .cls-1 {
        fill: #8cd5cf;
      }

      .cls-2 {
        fill: #121629;
      }

      .cls-3 {
        fill: #163c5b;
      }
    </style>
  </defs>
  <g id="Layer_1-2" data-name="Layer 1">
    <g>
      <path class="cls-1" d="m100.4,42.77h-9.22v-.26h9.09V9.08s.01-.07.04-.09l7.6-7.6.18.18-7.56,7.56v33.51c0,.07-.06.13-.13.13Z"/>
      <polygon class="cls-1" points="89.46 53.73 89.46 58.29 84.9 58.29 89.46 53.73"/>
      <g>
        <rect class="cls-2" x="99.75" y="42" width="1.29" height="1.29" transform="translate(57.75 143.04) rotate(-90)"/>
        <path class="cls-1" d="m101.04,43.42h-1.29c-.07,0-.13-.06-.13-.13v-1.29c0-.07.06-.13.13-.13h1.29c.07,0,.13.06.13.13v1.29c0,.07-.06.13-.13.13Zm-1.16-.26h1.03v-1.03h-1.03v1.03Z"/>
      </g>
      <g>
        <rect class="cls-2" x="99.75" y="8.43" width="1.29" height="1.29" transform="translate(91.32 109.47) rotate(-90)"/>
        <path class="cls-1" d="m101.04,9.85h-1.29c-.07,0-.13-.06-.13-.13v-1.29c0-.07.06-.13.13-.13h1.29c.07,0,.13.06.13.13v1.29c0,.07-.06.13-.13.13Zm-1.16-.26h1.03v-1.03h-1.03v1.03Z"/>
      </g>
      <path class="cls-1" d="m60.63,59.96s-.07-.08-.12-.08h-13.27c-.05,0-.1.03-.12.08-.02.05,0,.1.03.14l.86.86s.06.04.09.04h11.55s.07-.01.09-.04l.86-.86s.05-.09.03-.14Z"/>
      <path class="cls-1" d="m89.57,59.96s-.07-.08-.12-.08h-5.42c-.05,0-.1.03-.12.08-.02.05,0,.1.03.14l.86.86s.06.04.09.04h3.7s.07-.01.09-.04l.86-.86s.05-.09.03-.14Z"/>
      <polygon class="cls-1" points="71.24 7.23 63.33 7.23 62.21 8.35 72.36 8.35 71.24 7.23"/>
      <circle class="cls-1" cx="91.17" cy="46.7" r=".52"/>
      <g>
        <path class="cls-2" d="m91.17,24.74v5.45l-.03.03c0-2,.01-3.9.01-5.49h.01Z"/>
        <path class="cls-1" d="m91.14,30.35s-.03,0-.05,0c-.05-.02-.08-.07-.08-.12v-5.49c.01-.05.05-.1.09-.12.05-.02.1,0,.14.03h.01s.04.07.04.11v5.45s-.01.07-.04.09l-.03.03s-.06.04-.09.04Z"/>
      </g>
      <g>
        <path class="cls-2" d="m91.13,37.66l.04.04v9.01c-.04-.1-.04-4.15-.04-9.05Z"/>
        <path class="cls-1" d="m91.17,46.83c-.05,0-.1-.03-.12-.09-.02-.05-.06-.16-.05-9.09,0-.05.03-.1.08-.12.05-.02.1,0,.14.03l.04.04s.04.06.04.09v9.01c0,.06-.05.12-.11.13,0,0-.01,0-.02,0Z"/>
      </g>
      <g>
        <path class="cls-1" d="m109.34,1.48c0,.74-.6,1.35-1.35,1.35h0c-.74,0-1.34-.6-1.34-1.35,0-.37.15-.7.39-.95.24-.25.58-.4.96-.4.74,0,1.35.6,1.35,1.35Z"/>
        <path class="cls-1" d="m108,2.95c-.82,0-1.48-.66-1.48-1.48,0-.39.15-.76.43-1.04.28-.28.65-.44,1.05-.44.81,0,1.48.66,1.48,1.48s-.66,1.48-1.48,1.48Zm0-2.69c-.33,0-.64.13-.87.36-.23.23-.35.53-.35.86,0,.67.54,1.22,1.21,1.22.67,0,1.22-.55,1.22-1.22s-.55-1.22-1.22-1.22Z"/>
      </g>
      <g>
        <path class="cls-1" d="m89.46,60.14h-39.78s-.07-.01-.09-.04l-14.59-14.59H1c-.07,0-.13-.06-.13-.13v-27.42h.26v27.29h33.93s.07.01.09.04l14.59,14.59h39.72v.26Z"/>
        <rect class="cls-1" x="83.21" y="5.83" width=".26" height="22.15" transform="translate(12.45 63.88) rotate(-45)"/>
        <path class="cls-3" d="m88.6,30.34v7.21l.86.86v19.88h-14.99l-.86-.86h-16.07l-.86.86h-6.28c-3.45-3.45-6.49-6.49-9.34-9.34v-1.22l-4.07-4.07H2.71V14.64l3.84-3.84h68.24l14.66,14.66v4.03l-.86.86Z"/>
        <path class="cls-1" d="m41.14,41.21H5.29c-.07,0-.13-.06-.13-.13V15.71s.01-.07.04-.09l2.33-2.33s.06-.04.09-.04h33.51c.07,0,.13.06.13.13v27.71c0,.07-.06.13-.13.13Zm-35.72-.26h35.59V13.5H7.68l-2.26,2.26v25.2Z"/>
        <rect class="cls-1" x="46.21" y="26.23" width="37.06" height=".26"/>
        <g>
          <g>
            <polygon class="cls-1" points=".13 33.59 .99 33.59 1 36.97 .13 36.11 .13 33.59"/>
            <path class="cls-1" d="m1.12,37.28L0,36.16v-2.71s1.12,0,1.12,0v3.82Zm-.86-1.22l.6.6v-2.94H.26v2.34Z"/>
          </g>
          <g>
            <rect class="cls-1" x=".13" y="30.64" width=".86" height="1.91"/>
            <path class="cls-1" d="m1.12,32.68H0v-2.17s1.12,0,1.12,0v2.17Zm-.86-.26h.6v-1.65H.26v1.65Z"/>
          </g>
          <g>
            <rect class="cls-1" x=".13" y="27.7" width=".86" height="1.91"/>
            <path class="cls-1" d="m1.12,29.74H0v-2.17s1.12,0,1.12,0v2.17Zm-.86-.26h.6v-1.65H.26v1.65Z"/>
          </g>
          <g>
            <polygon class="cls-1" points=".13 24.15 .99 23.29 .99 26.67 .13 26.67 .13 24.15"/>
            <path class="cls-1" d="m1.12,26.8H0v-2.71s1.11-1.12,1.11-1.12v3.82Zm-.86-.26h.6v-2.94s-.6.6-.6.6v2.34Z"/>
          </g>
        </g>
        <g>
          <g>
            <rect class="cls-1" x="8.28" y="43.18" width=".86" height="4.47" transform="translate(54.13 36.7) rotate(90)"/>
            <path class="cls-1" d="m11.08,45.97h-4.73v-1.12h4.73v1.12Zm-4.47-.26h4.21v-.6h-4.21v.6Z"/>
          </g>
          <rect class="cls-1" x="11.68" y="44.86" width=".26" height="1.12"/>
          <rect class="cls-1" x="12.54" y="44.86" width=".26" height="1.12"/>
        </g>
        <g>
          <polygon class="cls-1" points="75.51 9.08 53.36 9.08 54.22 8.22 74.65 8.22 75.51 9.08"/>
          <path class="cls-1" d="m75.82,9.21h-22.77l1.12-1.12h20.54l1.12,1.12Zm-22.15-.26h21.53l-.6-.6h-20.33l-.6.6Z"/>
        </g>
        <path class="cls-1" d="m49.98,60.14l-10.52-10.52v-1.18s-.01-.07-.04-.09l-3.07-3.07s-.06-.04-.09-.04h-1.18s-.05,0-.05,0h-17.17c-.05,0-.1.03-.12.08-.02.05,0,.1.03.14l.86.86s.06.04.09.04h10.77l.87.87h3.91l12.9,12.9h2.8Z"/>
        <path class="cls-1" d="m1.51,17.97c0,.28-.23.52-.52.52s-.52-.23-.52-.52.23-.52.52-.52.52.23.52.52Z"/>
        <g>
          <g>
            <path class="cls-1" d="m53.36,9.08l.86-.86-.86.86Z"/>
            <rect class="cls-1" x="53.18" y="8.52" width="1.22" height=".26" transform="translate(9.65 40.58) rotate(-45.02)"/>
          </g>
          <g>
            <path class="cls-1" d="m52.02,9.08l.86-.86-.86.86Z"/>
            <rect class="cls-1" x="51.84" y="8.52" width="1.22" height=".26" transform="translate(9.26 39.63) rotate(-45.02)"/>
          </g>
          <g>
            <path class="cls-1" d="m50.69,9.08l.86-.86-.86.86Z"/>
            <rect class="cls-1" x="50.51" y="8.52" width="1.22" height=".26" transform="translate(8.87 38.69) rotate(-45.02)"/>
          </g>
          <g>
            <path class="cls-1" d="m49.35,9.08l.86-.86-.86.86Z"/>
            <rect class="cls-1" x="49.18" y="8.52" width="1.22" height=".26" transform="translate(8.48 37.75) rotate(-45.02)"/>
          </g>
          <g>
            <path class="cls-1" d="m48.02,9.08l.86-.86-.86.86Z"/>
            <rect class="cls-1" x="47.84" y="8.52" width="1.22" height=".26" transform="translate(8.08 36.79) rotate(-45)"/>
          </g>
          <g>
            <path class="cls-1" d="m46.68,9.08l.86-.86-.86.86Z"/>
            <rect class="cls-1" x="46.51" y="8.52" width="1.22" height=".26" transform="translate(7.69 35.86) rotate(-45.02)"/>
          </g>
          <g>
            <path class="cls-1" d="m45.35,9.08l.86-.86-.86.86Z"/>
            <rect class="cls-1" x="45.17" y="8.52" width="1.22" height=".26" transform="translate(7.3 34.91) rotate(-45.02)"/>
          </g>
        </g>
        <rect class="cls-1" x="36.96" y="46.69" width=".26" height="9.79" transform="translate(-25.61 41.34) rotate(-45)"/>
        <rect class="cls-1" x="24.23" y="8.95" width="21.12" height=".26"/>
        <g>
          <g>
            <path class="cls-1" d="m16.94,25.76l-.25-.07c.31-1.17.93-2.24,1.78-3.09.85-.85,1.92-1.47,3.09-1.78l.07.25c-1.13.3-2.16.9-2.97,1.72-.82.82-1.42,1.85-1.72,2.97Z"/>
            <path class="cls-1" d="m21.56,34.13c-1.17-.31-2.23-.93-3.09-1.78-.85-.85-1.47-1.92-1.78-3.09l.25-.07c.3,1.13.9,2.16,1.72,2.97.82.82,1.85,1.42,2.97,1.72l-.07.25Z"/>
            <path class="cls-1" d="m25.13,34.13l-.07-.25c1.13-.3,2.16-.9,2.97-1.72.82-.82,1.42-1.85,1.72-2.97l.25.07c-.31,1.17-.93,2.23-1.78,3.09-.85.85-1.92,1.47-3.09,1.78Z"/>
            <path class="cls-1" d="m29.75,25.76c-.3-1.13-.9-2.16-1.72-2.97-.82-.82-1.85-1.42-2.97-1.72l.07-.25c1.17.31,2.23.93,3.09,1.78.85.85,1.47,1.92,1.78,3.09l-.25.07Z"/>
          </g>
          <g>
            <rect class="cls-1" x="19.96" y="27.34" width="6.76" height=".26"/>
            <rect class="cls-1" x="23.22" y="24.09" width=".26" height="6.76"/>
          </g>
        </g>
        <g>
          <polygon class="cls-1" points="73.75 60.01 57.38 60.01 58.24 59.15 72.89 59.15 73.75 60.01"/>
          <path class="cls-1" d="m73.75,60.14h-16.37c-.05,0-.1-.03-.12-.08-.02-.05,0-.1.03-.14l.86-.86s.06-.04.09-.04h14.65s.07.01.09.04l.86.86s.05.09.03.14c-.02.05-.07.08-.12.08Zm-16.06-.26h15.74l-.6-.6h-14.54l-.6.6Z"/>
        </g>
        <path class="cls-1" d="m91.08,37.79l-.86-.86s-.04-.06-.04-.09v-5.79s.01-.07.04-.09l.86-.86.18.18-.82.82v5.68l.82.82-.18.18Z"/>
      </g>
    </g>
  </g>
</svg>