<?xml version="1.0" encoding="UTF-8"?>
<svg id="Layer_2" data-name="Layer 2" xmlns="http://www.w3.org/2000/svg" viewBox="0 0 96.43 65.25">
  <defs>
    <style>
      .cls-1 {
        fill: #8cd5cf;
      }

      .cls-2 {
        fill: #121629;
      }

      .cls-3 {
        fill: #163c5b;
      }
    </style>
  </defs>
  <g id="Layer_1-2" data-name="Layer 1">
    <g>
      <path class="cls-1" d="m1.12,30.47h-.26V7.77s.01-.07.04-.09L5.97,2.61l.18.18L1.12,7.82v22.65Z"/>
      <path class="cls-1" d="m78.07,39.57h-5.33v-.26h5.28l17.29-17.29V4.47l-1.64-1.64h-1.71v-.26h1.77s.07.01.09.04l1.72,1.72s.04.06.04.09v17.66s-.01.07-.04.09l-17.36,17.36s-.06.04-.09.04Z"/>
      <polygon class="cls-3" points="93.72 13.65 93.72 21.37 77.36 37.73 56.01 37.73 54.28 36 35.43 36 33.7 37.73 24.99 37.73 25 37.72 24.14 36.86 12.61 36.86 11.75 37.72 11.77 37.73 2.71 37.73 2.71 13.65 12.87 13.65 13.73 14.51 40.73 14.51 41.59 13.65 93.72 13.65"/>
      <path class="cls-1" d="m43.79,61.7l-.18-.18,8.85-8.85v-10.43h-9.32s-.07-.01-.09-.04l-1.69-1.69.18-.18,1.65,1.65h9.39c.07,0,.13.06.13.13v10.61s-.01.07-.04.09l-8.89,8.89Z"/>
      <g>
        <rect class="cls-1" x="72.62" y="38.93" width=".26" height="1.03"/>
        <rect class="cls-1" x="71.82" y="38.93" width=".26" height="1.03"/>
        <rect class="cls-1" x="71.03" y="38.93" width=".26" height="1.03"/>
        <rect class="cls-1" x="70.24" y="38.93" width=".26" height="1.03"/>
      </g>
      <path class="cls-1" d="m1.5,30.47c0,.28-.23.52-.52.52s-.52-.23-.52-.52.23-.52.52-.52.52.23.52.52Z"/>
      <path class="cls-1" d="m48.99,1.55s-.07-.01-.09-.04c-.05-.05-.05-.13,0-.18l.9-.9h18.27l.86.86h7.35c.07,0,.13.06.13.13s-.06.13-.13.13h-7.45l-.86-.86h-18.05l-.82.82s-.06.04-.09.04Z"/>
      <path class="cls-1" d="m60.09,42.24h-7.51v-.26h7.46l2.62-2.62s.06-.04.09-.04h6.33v.26h-6.28l-2.62,2.62s-.06.04-.09.04Z"/>
      <g>
        <rect class="cls-1" x="52.16" y="43.73" width=".86" height="4.47"/>
        <path class="cls-1" d="m53.14,48.32h-1.12v-4.73h1.12v4.73Zm-.86-.26h.6v-4.21h-.6v4.21Z"/>
      </g>
      <g>
        <polygon class="cls-1" points="6.86 1.71 5.75 2.83 22.08 2.83 23.2 1.71 6.86 1.71"/>
        <polygon class="cls-1" points="26.79 1.71 25.67 2.83 26.42 2.83 27.54 1.71 26.79 1.71"/>
        <polygon class="cls-1" points="23.93 1.71 22.81 2.83 23.56 2.83 24.68 1.71 23.93 1.71"/>
        <polygon class="cls-1" points="25.36 1.71 24.24 2.83 24.99 2.83 26.11 1.71 25.36 1.71"/>
        <path class="cls-1" d="m80.15,1.33l-.86-.86s-.06-.04-.09-.04h-2.07s-.07.01-.09.04l-.86.86s-.05.09-.03.14c.02.05.07.08.12.08h3.79c.05,0,.1-.03.12-.08.02-.05,0-.1-.03-.14Z"/>
        <path class="cls-1" d="m60.27,39.4H26.8c-.05,0-.1.03-.12.08-.02.05,0,.1.03.14l.86.86s.06.04.09.04h31.75s.07-.01.09-.04l.86-.86s.05-.09.03-.14c-.02-.05-.07-.08-.12-.08Z"/>
        <rect class="cls-1" x="52.43" width="4.73" height="1.12"/>
        <rect class="cls-1" x="57.75" width=".26" height="1.12"/>
        <rect class="cls-1" x="58.61" width=".26" height="1.12"/>
      </g>
      <g>
        <path class="cls-1" d="m45.95,37.62s-.06-.04-.09-.04h-9.71s-.07.01-.09.04l-1.72,1.72s-.05.09-.03.14c.02.05.07.08.12.08h13.15c.05,0,.1-.03.12-.08.02-.05,0-.1-.03-.14l-1.72-1.72Z"/>
        <polygon class="cls-1" points="47.34 37.59 49.32 39.56 50.45 39.56 48.48 37.59 47.34 37.59"/>
        <polygon class="cls-1" points="49.91 37.59 51.89 39.56 53.03 39.56 51.05 37.59 49.91 37.59"/>
        <polygon class="cls-1" points="53.62 37.59 52.48 37.59 54.46 39.56 55.6 39.56 53.62 37.59"/>
      </g>
      <g>
        <rect class="cls-2" x="51.94" y="52.08" width="1.29" height="1.29" transform="translate(-.13 105.31) rotate(-90)"/>
        <path class="cls-1" d="m53.23,53.49h-1.29c-.07,0-.13-.06-.13-.13v-1.29c0-.07.06-.13.13-.13h1.29c.07,0,.13.06.13.13v1.29c0,.07-.06.13-.13.13Zm-1.16-.26h1.03v-1.03h-1.03v1.03Z"/>
      </g>
      <path class="cls-1" d="m93.72,4.29l-1.68-1.68s-.06-.04-.09-.04h-44.23s-.07.01-.09.04l-1.68,1.68H6.77s-.07.01-.09.04l-4.06,4.06s-.04.06-.04.09v3.45c0,.07.06.13.13.13h10.82l.82.82s.06.04.09.04h25.57s.07-.01.09-.04l.82-.82h52.79c.07,0,.13-.06.13-.13v-7.51c0-.07-.05-.13-.12-.13Zm-.99,6.65h-6.4v-6.4h6.4v6.4Z"/>
      <g>
        <path class="cls-1" d="m43.69,65.25h-3.51c-.07,0-.13-.06-.13-.13v-3.51c0-.07.06-.13.13-.13h3.51c.07,0,.13.06.13.13v3.51c0,.07-.06.13-.13.13Zm-3.38-.26h3.25v-3.25h-3.25v3.25Z"/>
        <path class="cls-1" d="m41.94,62.53h0c.46,0,.84.38.84.84h0c0,.46-.38.84-.84.84h0c-.46,0-.84-.38-.84-.84h0c0-.46.38-.84.84-.84Z"/>
      </g>
      <rect class="cls-1" x="96.17" y="10.37" width=".26" height="7.29"/>
      <rect class="cls-1" y="15.91" width=".26" height="7.29"/>
    </g>
  </g>
</svg>