<?xml version="1.0" encoding="UTF-8"?>
<svg id="Layer_2" data-name="Layer 2" xmlns="http://www.w3.org/2000/svg" viewBox="0 0 79.87 77.9">
  <defs>
    <style>
      .cls-1 {
        fill: #8dd2cd;
      }

      .cls-2 {
        fill: #163c5b;
      }
    </style>
  </defs>
  <g id="Layer_1-2" data-name="Layer 1">
    <g>
      <g>
        <g>
          <polygon class="cls-1" points="28.37 61.7 33.37 61.7 27.08 55.4 22.08 55.4 28.37 61.7"/>
          <polygon class="cls-1" points="33.67 61.7 38.67 61.7 32.37 55.4 27.47 55.4 33.67 61.7"/>
          <polygon class="cls-1" points="39.08 61.7 43.97 61.7 37.67 55.4 32.77 55.4 39.08 61.7"/>
          <polygon class="cls-1" points="23.08 61.7 27.97 61.7 21.77 55.4 16.77 55.4 23.08 61.7"/>
          <path class="cls-1" d="m77.27,12l-6-6H10.77c-.1,0-.1.1-.1.1v24.5l1.7,1.7v13.5l-1.7,1.7v8.2h0l6,6h6l-6.3-6.3h-5.6v-7.9l1.7-1.7v-13.7l-1.7-1.7V6.2h60.3l5.9,5.9v43.3h-8l-.3.3-1.7,1.7h-21.3l-1.7-1.7-.3-.3h-5.7l6.3,6.3h26.9l6-6h0l.1-43.7c.1.1,0,0,0,0Z"/>
        </g>
        <path class="cls-2" d="m12.97,53.5v-5.6l1.7-1.7v-15l-1.7-1.7V7.5h58l5,5v41H12.97Z"/>
        <path class="cls-1" d="m71.27,6l-1.7-1.7h-26.4l-4.3-4.3h-22.2l-6,6v.1l.1.1h60.4q.1,0,.1-.1v-.1Z"/>
        <polygon class="cls-1" points="79.87 37 78.77 35.9 78.77 51.2 79.87 50.1 79.87 37"/>
        <rect class="cls-1" x="10.57" y="32.6" width=".3" height="12.7"/>
        <path class="cls-1" d="m3.17,75.7h-.3v-33.4l3.4-3.4h4.3v.3h-4.2l-3.4,3.4v33.1h.2Z"/>
        <path class="cls-1" d="m1.47,45.3h-.3v-3.7l2.3-2.3.2.2-2.2,2.2v3.6Z"/>
        <polygon class="cls-2" points="44.47 53.5 46.17 55.3 67.58 55.3 69.27 53.5 44.47 53.5"/>
        <g>
          <g>
            <path class="cls-1" d="m4.27,74.9c0,.7-.6,1.2-1.2,1.2-.7,0-1.2-.6-1.2-1.2s.6-1.2,1.2-1.2c.7-.1,1.2.5,1.2,1.2Z"/>
            <path class="cls-1" d="m3.07,76.2c-.8,0-1.4-.6-1.4-1.4s.6-1.4,1.4-1.4,1.4.6,1.4,1.4-.7,1.4-1.4,1.4Zm0-2.4c-.6,0-1.1.5-1.1,1.1s.5,1.1,1.1,1.1,1.1-.5,1.1-1.1-.5-1.1-1.1-1.1Z"/>
          </g>
          <path class="cls-1" d="m3.07,77.9c-.3,0-.5,0-.8-.1-.5-.1-1-.4-1.4-.8-.4-.4-.6-.8-.8-1.4-.1-.5-.1-1,0-1.6.1-.5.4-1,.8-1.4s.8-.6,1.4-.8l.1.2c-.5.1-.9.4-1.2.7-.3.3-.6.8-.7,1.2-.1.5-.1,1,0,1.4.1.5.4.9.7,1.2.3.3.8.6,1.2.7.5.1,1,.1,1.4,0,.5-.1.9-.4,1.2-.7.3-.3.6-.8.7-1.2.1-.5.1-1,0-1.4-.1-.5-.4-.9-.7-1.2-.3-.3-.8-.6-1.2-.7l.1-.2c.5.1,1,.4,1.4.8.4.4.6.8.8,1.4.1.5.1,1,0,1.6-.1.5-.4,1-.8,1.4s-.8.6-1.4.8c-.3.1-.6.1-.8.1Z"/>
        </g>
        <path class="cls-1" d="m66.98,3.4h-3.9l-1-1h-12.3l-1,1h-5.1l-3.2-3.2.2-.2,3.2,3.2h4.8l1-1h12.6l1,1h3.7s0,.2,0,.2Z"/>
      </g>
      <path class="cls-1" d="m73.98,26.8l-4.2-4.2H13.87v-.3h56l4.3,4.3-.2.2Z"/>
      <g>
        <g>
          <path class="cls-1" d="m17.77,18.9h-2.3c-.1,0-.1-.1-.1-.1v-2.3h.3v2.1h2.1v.3Z"/>
          <path class="cls-1" d="m23.17,18.9h-2.3v-.3h2.1v-2.1h.3v2.3l-.1.1Z"/>
          <path class="cls-1" d="m15.67,13.4h-.3v-2.3c0-.1.1-.1.1-.1h2.3v.3h-2.1v2.1Z"/>
          <path class="cls-1" d="m23.27,13.4h-.3v-2.1h-2.1v-.3h2.3c.1,0,.1.1.1.1v2.3Z"/>
        </g>
        <rect class="cls-1" x="16.97" y="14.8" width="4.8" height=".3"/>
        <rect class="cls-1" x="19.17" y="12.5" width=".3" height="4.8"/>
      </g>
      <rect class="cls-1" x="66.87" y="2.8" width=".3" height=".9"/>
      <path class="cls-1" d="m71.87,63.4H18.37l-1.7-1.7.2-.2,1.7,1.7h53.3l6.9-6.9v-23.2l-1.7-1.7v-6.9l1.7-1.7v-11.4l-6.9-6.9h-28.7v-.3h28.9l7,7v11.7l-1.7,1.7v6.6l1.7,1.7v23.5l-7.2,7q.1,0,0,0Z"/>
      <path class="cls-1" d="m60.67,64.3h-8.6l-.9-.9.2-.2.8.8h8.4l.8-.8.2.2-.9.9c.1,0,0,0,0,0Z"/>
    </g>
  </g>
</svg>