<?xml version="1.0" encoding="UTF-8"?>
<svg id="Layer_2" data-name="Layer 2" xmlns="http://www.w3.org/2000/svg" viewBox="0 0 103.8 46.3">
  <defs>
    <style>
      .cls-1 {
        fill: #8dd2cd;
      }

      .cls-2 {
        fill: #163c5b;
      }
    </style>
  </defs>
  <g id="Layer_1-2" data-name="Layer 1">
    <g>
      <path class="cls-1" d="m96,22.1v16.9l-3.9,3.9h-16.9c-.1,0-.1-.1-.1-.1v-20.7c0-.1.1-.1.1-.1h11.9l.9.9h4.1l.9-.9h2.9c.1-.1.1,0,.1.1Z"/>
      <path class="cls-1" d="m75.2,42.9H7.2L0,35.7v-9.8l3.8-3.8h71.5v20.8c0-.1,0,0-.1,0Zm-67.9-.3h67.7v-20.4H3.9L.1,26v9.5l7.2,7.1Z"/>
      <path class="cls-2" d="m74,23.5v13.9c-1.3,1.3-2,2-3.4,3.4H8.5l-6.2-6.2v-8.2l2.8-2.8h16.3l.9.9h19.6l.9-.9h31.2v-.1Z"/>
      <g>
        <path class="cls-1" d="m81,42.8l-1.7,1.7h-28.1v-.1l-.9-.9h-5.6l-.9.9v.1h-16.7l-1.7-1.7v-.1l.1-.1h55.4q.1,0,.1.1c.1,0,.1.1,0,.1Z"/>
        <polygon class="cls-1" points="22.6 42.6 24.6 44.6 25.8 44.6 23.8 42.6 22.6 42.6"/>
        <polygon class="cls-1" points="20.1 42.6 22.1 44.6 23.2 44.6 21.2 42.6 20.1 42.6"/>
        <polygon class="cls-1" points="17.5 42.6 19.5 44.6 20.6 44.6 18.6 42.6 17.5 42.6"/>
      </g>
      <path class="cls-1" d="m92.7,44.6h-11.3v-.3h11.3l4.8-4.8v-19.1h-4.5l-.8.8h-3.9l-.8-.8h-13.9v-.3h14l.8.8h3.6l.8-.8h4.8c.1,0,.1.1.1.1v19.4l-5,5q.1,0,0,0Z"/>
      <g>
        <polygon class="cls-1" points="5.7 20.3 .1 25.9 .1 24.7 4.5 20.3 5.7 20.3"/>
        <path class="cls-1" d="m0,26.2v-1.6l4.4-4.4h1.6L0,26.2Zm.2-1.5v.9l5.1-5.1h-.9L.2,24.7Z"/>
      </g>
      <g>
        <polygon class="cls-1" points="53.9 21.1 55 22.2 55.7 22.2 54.6 21.1 53.9 21.1"/>
        <polygon class="cls-1" points="56.1 21.1 55.3 21.1 56.4 22.2 57.2 22.2 56.1 21.1"/>
      </g>
      <g>
        <polygon class="cls-1" points="75.2 38.2 75.2 42.7 70.7 42.7 75.2 38.2"/>
        <path class="cls-1" d="m75.2,42.9h-4.6q-.1,0-.1-.1v-.1l4.6-4.6h.1l.1.1v4.6s0,.1-.1.1Zm-4.2-.3h4.1v-4.1l-4.1,4.1Z"/>
      </g>
      <g>
        <path class="cls-1" d="m77.4,20.2l-.9-.9h-8.7l-.9.9v.1l.1.1h10.2q.1,0,.1-.1t.1-.1Z"/>
        <polygon class="cls-1" points="4.4 20.2 0 24.6 0 26.2 4 22.2 20.2 22.2 18.3 20.2 4.4 20.2"/>
        <path class="cls-1" d="m.2,38.1h-.1l-.1.1v4.6c0,.1.1.1.1.1h4.6q.1,0,.1-.1v-.1L.2,38.1Z"/>
      </g>
      <g>
        <polygon class="cls-1" points="98.5 30 97.6 30.9 97.6 24.7 98.5 25.5 98.5 30"/>
        <path class="cls-1" d="m97.5,31.2v-6.8l1.1,1.1v4.6l-1.1,1.1Zm.2-6.2v5.6l.6-.6v-4.4l-.6-.6Z"/>
      </g>
      <g>
        <path class="cls-1" d="m73.2,46.3h-16.1l-1.7-1.7v-.1l.1-.1h19.5q.1,0,.1.1v.1l-1.9,1.7h0Zm-16-.3h15.9l1.5-1.5h-18.8l1.4,1.5Z"/>
        <rect class="cls-1" x="57.5" y="45.2" width="15.2" height=".3"/>
      </g>
      <path class="cls-1" d="m82,44.5c0,.3-.2.5-.5.5s-.5-.2-.5-.5.2-.5.5-.5c.2-.1.5.2.5.5Z"/>
      <path class="cls-1" d="m54,22l-.9-.9H18.7c-.1,0-.1.1-.1.1v.9c0,.1.1.1.1.1h2.8l.8.8h18.4l.8-.8h12.3q.1,0,.1-.1c.2,0,.1-.1.1-.1Z"/>
      <polygon class="cls-1" points="90.6 16.2 89.7 16.2 89.7 13.4 91.8 11.3 92.4 12 90.6 13.8 90.6 16.2"/>
      <rect class="cls-1" x="8.7" y="19.2" width="7.3" height=".3"/>
      <rect class="cls-1" x="88.8" y="20.2" width="2.7" height=".3"/>
      <path class="cls-1" d="m90.3,20.3h-.3v-6.8l10.8-10.8.2.2-10.7,10.7v6.7Z"/>
      <g>
        <path class="cls-1" d="m101.6,3.2c-.3,0-.5-.1-.7-.3-.4-.4-.4-1.1,0-1.5.2-.2.5-.3.7-.3.3,0,.5.1.7.3.4.4.4,1.1,0,1.5-.2.2-.5.3-.7.3Zm0-1.8c-.2,0-.4.1-.5.2-.3.3-.3.8,0,1.1.1.1.3.2.5.2s.4-.1.5-.2c.3-.3.3-.8,0-1.1-.1-.1-.3-.2-.5-.2Z"/>
        <path class="cls-1" d="m101.6,4.4c-.4,0-.8-.1-1.1-.3l.1-.2c.3.2.6.3,1,.3.3,0,.7-.1,1-.3s.5-.4.7-.7.3-.6.3-1-.1-.7-.3-1-.4-.5-.7-.7-.6-.3-1-.3c-.3,0-.7.1-1,.3s-.5.4-.7.7-.3.6-.3,1,.1.7.3,1l-.2.1c-.2-.3-.3-.7-.3-1.1s.1-.8.3-1.1.5-.6.8-.8.7-.3,1.1-.3.8.1,1.1.3.6.5.8.8.3.7.3,1.1-.1.8-.3,1.1-.5.6-.8.8c-.4.2-.7.3-1.1.3Z"/>
      </g>
    </g>
  </g>
</svg>