<?xml version="1.0" encoding="UTF-8"?>
<svg id="Layer_2" data-name="Layer 2" xmlns="http://www.w3.org/2000/svg" viewBox="0 0 78.6 58.3">
  <defs>
    <style>
      .cls-1 {
        fill: #8dd2cd;
      }

      .cls-2 {
        fill: #163c5b;
      }
    </style>
  </defs>
  <g id="Layer_1-2" data-name="Layer 1">
    <g>
      <g>
        <polygon class="cls-2" points="61.6 23.6 61.6 36.9 62.5 37.8 62.5 46.5 53.8 55.2 45.6 55.2 44 53.6 25.2 53.6 23.5 55.2 3.3 55.2 3.3 45.5 6.5 42.3 6.5 34.9 3.3 31.7 3.3 13.8 9 13.8 10 14.7 39.8 14.7 40.7 13.8 62.5 13.8 62.5 22.7 61.6 23.6"/>
        <path class="cls-1" d="m54,57.4H1c-.1,0-.1-.1-.1-.1v-12.2l3.2-3.2v-5.8l-3.2-3.2V8.5L5.7,3.7h39.7l8.6,8.6h9.6c.1,0,.1.1.1.1v35.3l-9.7,9.7q.1,0,0,0Zm-52.8-.2h52.8l9.6-9.6V12.6h-9.6l-8.6-8.6H6L1.2,8.8v24.1l3.2,3.2v6.1l-3.2,3.2v11.8h0Z"/>
        <g>
          <polygon class="cls-1" points="54.1 12.4 1 12.4 1 8.6 5.9 3.7 45.4 3.7 54.1 12.4"/>
          <path class="cls-1" d="m54.1,12.6H1.1c-.1,0-.1-.1-.1-.1v-3.9L5.8,3.8h39.7l8.7,8.7v.1c0-.1-.1,0-.1,0Zm-52.9-.3h52.5l-8.4-8.4H5.9L1.1,8.7v3.6h.1Z"/>
        </g>
        <path class="cls-1" d="m65.5,30.8l-.2-.2,5.8-5.8V7.2l3.6-3.6.2.2-3.6,3.6v17.6l-5.8,5.8Z"/>
        <g>
          <polygon class="cls-1" points="57.4 12.4 48.7 3.7 47.4 3.7 56.1 12.4 57.4 12.4"/>
          <path class="cls-1" d="m57.7,12.6h-1.7l-8.9-8.9h1.7l8.9,8.9Zm-1.6-.3h.9l-8.4-8.4h-.9l8.4,8.4Z"/>
        </g>
        <g>
          <polygon class="cls-1" points="60.8 12.4 52.1 3.7 50.8 3.7 59.5 12.4 60.8 12.4"/>
          <path class="cls-1" d="m61.1,12.6h-1.7l-8.9-8.9h1.7l8.9,8.9Zm-1.5-.3h.9l-8.4-8.4h-.9l8.4,8.4Z"/>
        </g>
        <g>
          <polygon class="cls-1" points="9.3 12.4 39.4 12.4 38.6 13.3 10.2 13.3 9.3 12.4"/>
          <path class="cls-1" d="m38.6,13.4H10.1l-.9-.9v-.1l.1-.1h30.1q.1,0,.1.1v.1l-.9.9h0Zm-28.4-.2h28.3l.6-.6H9.6l.6.6Z"/>
        </g>
        <g>
          <polygon class="cls-1" points="63.7 23.7 63.7 37.3 62.9 36.5 62.9 24.6 63.7 23.7"/>
          <path class="cls-1" d="m63.7,37.5s0-.1,0,0l-1-.9v-12.1l.9-.9h.1l.1.1v13.6c.1.1,0,.1-.1.2.1,0,0,0,0,0Zm-.7-1.1l.6.6v-13l-.6.6v11.8Z"/>
        </g>
        <path class="cls-1" d="m.9,26.5l-.9-.9v-9.1l.9-.9.2.2-.8.8v8.8l.8.8-.2.3Z"/>
        <g>
          <path class="cls-1" d="m76.6,3.5c-.4,0-.8-.1-1.1-.4-.6-.6-.6-1.5,0-2.1s1.5-.6,2.1,0,.6,1.5,0,2.1c-.2.3-.6.4-1,.4Zm0-2.7c-.3,0-.6.1-.9.4-.5.5-.5,1.3,0,1.8s1.3.5,1.8,0,.5-1.3,0-1.8c-.3-.3-.6-.4-.9-.4Z"/>
          <rect class="cls-1" x="77.2" y="1.9" width="1.4" height=".3"/>
          <rect class="cls-1" x="76.5" y="2.7" width=".3" height="1.4"/>
          <rect class="cls-1" x="76.5" width=".3" height="1.4"/>
          <rect class="cls-1" x="74.6" y="1.9" width="1.4" height=".3"/>
        </g>
        <path class="cls-1" d="m5.6,4.2q-.1,0,0,0c-.1-.1-.1-.2-.1-.2l1.5-1.5h6.2l.9-.9h17.4c.1,0,.1.1.1.1,0,.1-.1.1-.1.1H14.2l-.9.9h-6.2l-1.5,1.5h0Z"/>
        <rect class="cls-1" x="65.3" y="28.2" width=".3" height="4.6"/>
        <g>
          <polygon class="cls-1" points="1 42.8 1 35.2 2.5 36.7 2.5 41.2 1 42.8"/>
          <path class="cls-1" d="m1,42.9h0c-.1,0-.1-.1-.1-.1v-7.5q0-.1.1-.1h.1l1.5,1.5v4.7l-1.6,1.5q.1,0,0,0Zm.2-7.4v6.9l1.3-1.3v-4.4l-1.3-1.2Z"/>
        </g>
        <g>
          <rect class="cls-1" x="33.7" y="1.2" width=".3" height="1"/>
          <rect class="cls-1" x="32.9" y="1.2" width=".3" height="1"/>
          <rect class="cls-1" x="32.1" y="1.2" width=".3" height="1"/>
          <rect class="cls-1" x="31.3" y="1.2" width=".3" height="1"/>
        </g>
      </g>
      <g>
        <g>
          <polygon class="cls-1" points="22.4 58.2 22.4 57.3 25.8 57.3 24.9 58.2 22.4 58.2"/>
          <path class="cls-1" d="m22.3,58.3v-1.1h3.8l-1.1,1.1h-2.7Zm.2-.9v.6h2.3l.6-.6h-2.9Z"/>
        </g>
        <g>
          <rect class="cls-1" x="19.5" y="57.3" width="1.9" height=".9"/>
          <path class="cls-1" d="m19.3,58.3v-1.1h2.2v1.1h-2.2Zm.3-.9v.6h1.7v-.6h-1.7Z"/>
        </g>
        <g>
          <rect class="cls-1" x="16.5" y="57.3" width="1.9" height=".9"/>
          <path class="cls-1" d="m16.4,58.3v-1.1h2.2v1.1h-2.2Zm.3-.9v.6h1.7v-.6h-1.7Z"/>
        </g>
        <g>
          <polygon class="cls-1" points="13 58.2 12.1 57.3 15.5 57.3 15.5 58.2 13 58.2"/>
          <path class="cls-1" d="m12.9,58.3l-1.1-1.1h3.8v1.1h-2.7Zm-.5-.9l.6.6h2.3v-.6h-2.9Z"/>
        </g>
      </g>
      <g>
        <g>
          <path class="cls-1" d="m25.4,55.6h9.7l1.7,1.7h-13.1c.6-.7,1-1,1.7-1.7Z"/>
          <path class="cls-1" d="m36.8,57.4h-13.1q-.1,0-.1-.1v-.1l1.7-1.7h9.9l1.7,1.7v.1q0,.1-.1.1Zm-12.8-.2h12.5l-1.5-1.5h-9.6l-1.4,1.5Z"/>
        </g>
        <g>
          <polygon class="cls-1" points="36.9 55.6 38.6 57.3 39.4 57.3 37.7 55.6 36.9 55.6"/>
          <path class="cls-1" d="m39.7,57.4h-1.1l-2-2h1.1l2,2Zm-1.1-.2h.4l-1.5-1.5h-.4l1.5,1.5Z"/>
        </g>
        <g>
          <polygon class="cls-1" points="39.4 55.6 41.2 57.3 41.9 57.3 40.2 55.6 39.4 55.6"/>
          <path class="cls-1" d="m42.3,57.4h-1.1l-2-2h1.1l2,2Zm-1.1-.2h.4l-1.5-1.5h-.4l1.5,1.5Z"/>
        </g>
        <g>
          <polygon class="cls-1" points="42 55.6 43.7 57.3 44.5 57.3 42.8 55.6 42 55.6"/>
          <path class="cls-1" d="m44.8,57.4h-1.1l-2-2h1.1l2,2Zm-1-.2h.4l-1.5-1.5h-.4l1.5,1.5Z"/>
        </g>
      </g>
    </g>
  </g>
</svg>