<?xml version="1.0" encoding="UTF-8"?>
<svg id="Layer_2" data-name="Layer 2" xmlns="http://www.w3.org/2000/svg" viewBox="0 0 89.61 52.37">
  <defs>
    <style>
      .cls-1 {
        fill: #8cd5cf;
      }

      .cls-2 {
        fill: #163c5b;
      }
    </style>
  </defs>
  <g id="Layer_1-2" data-name="Layer 1">
    <g>
      <g>
        <path class="cls-1" d="m74.56,28.03s-.07-.01-.09-.04l-1.72-1.72.18-.18,1.72,1.72-.09.09.09.09s-.06.04-.09.04c0,0,0,0,0,0Z"/>
        <path class="cls-1" d="m87.49,50.54l-13.09-13.09s-.04-.06-.04-.09v-9.52h.26v9.47l13.05,13.05-.18.18Z"/>
        <path class="cls-1" d="m72.58,1.72h-30.87s-.07.01-.09.04l-5.8,5.8s-.05.09-.03.14c.02.05.07.08.12.08h36.67c.07,0,.13-.06.13-.13V1.85c0-.07-.06-.13-.13-.13Z"/>
        <path class="cls-1" d="m22.63,39.27h-14.19s-.07-.01-.09-.04l-3.14-3.14.18-.18,3.1,3.1h14.14v.26Z"/>
        <path class="cls-1" d="m74.6,20.62v7.28c0,.05-.03.1-.08.12-.02,0-.03.01-.05.01-.03,0-.07-.01-.09-.04l-1.72-1.72s-.04-.06-.04-.09v-11.03s.01-.07.04-.09l.91-.91v5.44l1.03,1.03Z"/>
        <path class="cls-1" d="m72.76,37.55H9.07s-.07-.01-.09-.04L.81,29.35s-.04-.06-.04-.09V7.64c0-.07.06-.13.13-.13h71.85c.07,0,.13.06.13.13v5.08s-.01.07-.04.09l-1.68,1.68v12.34l1.68,1.68s.04.06.04.09v8.81c0,.07-.06.13-.13.13Zm-63.64-.26h63.51v-8.63l-1.68-1.68s-.04-.06-.04-.09v-12.45s.01-.07.04-.09l1.68-1.68v-4.9H1.03v21.43l8.09,8.09Z"/>
        <polygon class="cls-2" points="9.78 35.7 2.62 28.55 2.62 9.36 71.04 9.36 71.04 12.01 69.32 13.73 69.32 27.61 71.04 29.33 71.04 35.7 9.78 35.7"/>
        <path class="cls-1" d="m1.04,7.52s-.1,0-.14.03l-.86.86s-.04.06-.04.09v11.05s.01.07.04.09l.86.86s.06.04.09.04c.02,0,.03,0,.05,0,.05-.02.08-.07.08-.12V7.64c0-.05-.03-.1-.08-.12Z"/>
        <g>
          <path class="cls-1" d="m64.83,37.37s-.07-.08-.12-.08h-29.62c-.05,0-.1.03-.12.08-.02.05,0,.1.03.14l1.72,1.72s.06.04.09.04h3.96l.82.82s.06.04.09.04h6.82s.07-.01.09-.04l.82-.82h13.58s.07-.01.09-.04l1.72-1.72s.05-.09.03-.14Z"/>
          <polygon class="cls-1" points="32.21 37.29 34.19 39.27 35.33 39.27 33.35 37.29 32.21 37.29"/>
          <polygon class="cls-1" points="29.64 37.29 31.62 39.27 32.76 39.27 30.78 37.29 29.64 37.29"/>
          <polygon class="cls-1" points="27.07 37.29 29.05 39.27 30.19 39.27 28.21 37.29 27.07 37.29"/>
        </g>
        <g>
          <polygon class="cls-1" points="36.6 1.72 30.55 7.77 33.53 7.77 39.58 1.72 36.6 1.72"/>
          <polygon class="cls-1" points="31.55 1.72 25.5 7.77 28.47 7.77 34.53 1.72 31.55 1.72"/>
          <polygon class="cls-1" points="26.49 1.72 20.44 7.77 23.42 7.77 29.47 1.72 26.49 1.72"/>
        </g>
        <g>
          <polygon class="cls-1" points="44.33 1.85 38.53 7.64 35.92 7.64 41.71 1.85 44.33 1.85"/>
          <path class="cls-1" d="m38.58,7.77h-2.98l6.05-6.05h2.98l-6.05,6.05Zm-2.35-.26h2.25l5.54-5.54h-2.25l-5.54,5.54Z"/>
        </g>
        <path class="cls-1" d="m1.08,7.73l-.18-.18L6.69,1.76s.06-.04.09-.04h17.82v.26H6.84L1.08,7.73Z"/>
        <polygon class="cls-1" points="71.04 31.15 71.04 35.7 66.48 35.7 71.04 31.15"/>
        <polygon class="cls-1" points="2.62 13.92 2.62 9.36 7.18 9.36 2.62 13.92"/>
        <g>
          <rect class="cls-1" x="86.53" y="49.29" width="2.45" height="2.45" transform="translate(-10.02 76.85) rotate(-45)"/>
          <path class="cls-1" d="m87.75,52.37s-.07-.01-.09-.04l-1.73-1.73s-.04-.06-.04-.09.01-.07.04-.09l1.73-1.73s.13-.05.18,0l1.73,1.73c.05.05.05.13,0,.18l-1.73,1.73s-.06.04-.09.04Zm-1.55-1.86l1.55,1.55,1.55-1.55-1.55-1.55-1.55,1.55Z"/>
        </g>
        <path class="cls-1" d="m72.67,1.94l-1.68-1.68h-27.33v-.26h27.38s.07.01.09.04l1.72,1.72-.18.18Z"/>
      </g>
      <path class="cls-1" d="m74.57,1.76l-1.72-1.72s-.06-.04-.09-.04h-1.72c-.05,0-.1.03-.12.08-.02.05,0,.1.03.14l1.68,1.68v10.82c0,.05.03.1.08.12.02,0,.03,0,.05,0,.03,0,.07-.01.09-.04l1.7-1.7s.04-.06.04-.09l.02-9.17s-.01-.07-.04-.09Z"/>
    </g>
  </g>
</svg>