<?xml version="1.0" encoding="UTF-8"?>
<svg id="Layer_2" data-name="Layer 2" xmlns="http://www.w3.org/2000/svg" viewBox="0 0 85.8 95.8">
  <defs>
    <style>
      .cls-1 {
        fill: #8dd2cd;
      }

      .cls-2 {
        fill: #163c5b;
      }
    </style>
  </defs>
  <g id="Layer_1-2" data-name="Layer 1">
    <g>
      <g>
        <path class="cls-1" d="m57.6,93.7H8.8l-7.1-7.1V5.8L5.7,1.8h8.8l1.7,1.7h15.2l1.7-1.7h24.6c.1,0,.1.1.1.1v16.6l6.1,6.1v53.5l-6.1,6.1v9.4c0,.1-.1.1-.2.1Zm-48.6-.2h48.5v-9.4l6.1-6.1V24.8l-6.1-6.1V2h-24.3l-1.7,1.7h-15.5l-1.7-1.7H5.8l-3.9,3.9v80.5l7.1,7.1Z"/>
        <path class="cls-2" d="m61.6,56.6v7l.9.9v12.4l-6.1,6.1v8.4H10.1l-6.1-6.1v-6.9l.9-.9v-17.9l-.9-.9v-9.8l.9-.9v-10.3l-.9-.9v-18.6c1.5-1.5,2.4-2.4,3.9-3.9h32.5l.9.9h7l.9-.9h7.3v4.7l6.1,6.1v30.6l-1,.9Z"/>
        <g>
          <polygon class="cls-1" points="57.6 12.9 57.6 1.9 33.1 1.9 31.4 3.7 16.1 3.7 14.3 1.9 5.8 1.9 1.8 5.9 1.8 12.9 57.6 12.9"/>
          <path class="cls-1" d="m57.6,13H1.7c-.1,0-.1-.1-.1-.1v-7.1L5.6,1.8h8.8l1.7,1.7h15.2l1.7-1.7h24.6c.1,0,.1.1.1.1v11c.1.1,0,.1-.1.1Zm-55.7-.2h55.6V2h-24.3l-1.7,1.7h-15.5l-1.7-1.7H5.8l-3.9,3.9v6.9h0Z"/>
        </g>
        <path class="cls-1" d="m83.6,56h-.3V18.6l-7-7h-15.3v-.3h15.5l7.1,7.1v37.6Z"/>
        <polygon class="cls-1" points="55.9 87.3 55.9 91.9 51.4 91.9 55.9 87.3"/>
        <g>
          <g>
            <path class="cls-1" d="m55.9.2h-10.7c-.7.7-1,1-1.7,1.7h14.1l-1.7-1.7Z"/>
            <path class="cls-1" d="m57.6,2h-14.1q-.1,0-.1-.1v-.1l1.7-1.7h10.9l1.7,1.7v.1q0,.1-.1.1Zm-13.8-.2h13.5l-1.5-1.5h-10.6l-1.4,1.5Z"/>
          </g>
          <g>
            <polygon class="cls-1" points="43.4 .2 41.7 1.9 40.9 1.9 42.6 .2 43.4 .2"/>
            <path class="cls-1" d="m41.8,2h-1.1l2-2h1.1l-2,2Zm-.6-.2h.4l1.5-1.5h-.4l-1.5,1.5Z"/>
          </g>
          <g>
            <polygon class="cls-1" points="40.8 .2 39.1 1.9 38.4 1.9 40.1 .2 40.8 .2"/>
            <path class="cls-1" d="m39.2,2h-1.1l2-2h1.1l-2,2Zm-.5-.2h.4l1.5-1.5h-.4l-1.5,1.5Z"/>
          </g>
        </g>
        <g>
          <polygon class="cls-1" points="1.8 44 .9 44.8 .9 65.6 1.8 66.4 1.8 44"/>
          <path class="cls-1" d="m1.8,66.6c-.1,0-.1-.1,0,0l-1-.9v-20.9l.9-.9h.1l.1.1v22.4q0,.1-.1.2h0Zm-.8-1.1l.6.6v-21.8l-.6.6v20.6Z"/>
        </g>
        <g>
          <polygon class="cls-1" points="64.6 53.2 64.6 79.6 63.8 80.4 63.8 52.3 64.6 53.2"/>
          <path class="cls-1" d="m63.8,80.6q-.1,0,0,0c-.1,0-.1-.1-.1-.1v-28.2q0-.1.1-.1h.1l.9.9v26.6l-1,.9h0Zm.1-28v27.5l.6-.6v-26.3l-.6-.6Z"/>
        </g>
        <g>
          <polygon class="cls-1" points="64.6 31 64.6 41.4 63.8 42.3 63.8 30.1 64.6 31"/>
          <path class="cls-1" d="m63.8,42.4q-.1,0,0,0c-.1,0-.1-.1-.1-.1v-12.2q0-.1.1-.1h.1l.9.9v10.7l-1,.8h0Zm.1-12v11.6l.6-.6v-10.4l-.6-.6Z"/>
        </g>
        <g>
          <polygon class="cls-1" points="58.5 83.3 58.5 92.7 57.6 93.6 57.6 84.1 58.5 83.3"/>
          <path class="cls-1" d="m57.6,93.7h0c-.1,0-.1-.1-.1-.1v-9.6l.9-.9h.1l.1.1v9.6l-1,.9q.1,0,0,0Zm.2-9.5v9.1l.6-.6v-9.1l-.6.6Z"/>
        </g>
        <g>
          <polygon class="cls-1" points="1.8 31.3 .1 33 .1 46 1.8 47.7 1.8 31.3"/>
          <path class="cls-1" d="m1.8,47.8q-.1,0,0,0l-1.8-1.8v-13.2l1.7-1.7h.1l.1.1v16.4q0,.2-.1.2h0Zm-1.6-1.9l1.5,1.5v-15.8l-1.5,1.5v12.8Z"/>
        </g>
        <g>
          <polygon class="cls-1" points="57.6 18.6 58.5 17.8 58.5 2.8 57.6 1.9 57.6 18.6"/>
          <path class="cls-1" d="m57.6,18.7h0c-.1,0-.1-.1-.1-.1V1.9q0-.1.1-.1h.1l.9.9v15.2l-1,.8q.1,0,0,0Zm.2-16.5v16.1l.6-.6V2.8l-.6-.6Z"/>
        </g>
        <g>
          <polygon class="cls-1" points="58.5 17.8 63.8 23 63.8 24.7 57.7 18.6 58.5 17.8"/>
          <path class="cls-1" d="m63.8,24.9c-.1,0-.1-.1,0,0l-6.2-6.2v-.2l.8-.8q.1-.1.2,0l5.3,5.3v1.7q0,.1-.1.2c0-.1,0,0,0,0Zm-5.9-6.3l5.8,5.8v-1.3l-5.1-5.1-.7.6Z"/>
        </g>
        <g>
          <polygon class="cls-1" points="1.8 17.4 1.8 12.9 6.3 12.9 1.8 17.4"/>
          <path class="cls-1" d="m1.8,17.6s-.1,0,0,0c-.1,0-.1-.1-.1-.1v-4.6c0-.1.1-.1.1-.1h4.6q.1,0,.1.1v.1l-4.7,4.6h0Zm.1-4.6v4.1l4.1-4.1H1.9Z"/>
        </g>
        <g>
          <polygon class="cls-1" points="64.6 77.2 64.6 79.6 57.6 86.6 57.6 84.1 58.5 83.3 63.8 78 64.6 77.2"/>
          <path class="cls-1" d="m57.6,86.7h0c-.1,0-.1-.1-.1-.1v-2.5l7-7h.1l.1.1v2.5l-7.1,7q.1,0,0,0Zm.2-2.5v2.1l6.7-6.7v-2.1l-6.7,6.7Z"/>
        </g>
        <g>
          <polygon class="cls-1" points="1.8 48.6 1.8 37.8 2.6 38.7 2.6 47.7 1.8 48.6"/>
          <path class="cls-1" d="m1.8,48.7s-.1,0,0,0c-.1,0-.1-.1-.1-.1v-10.8q0-.1.1-.1h.1l.9.9v9.2l-1,.9h0Zm.1-10.6v10.1l.6-.5v-9l-.6-.6Z"/>
        </g>
        <g>
          <polygon class="cls-1" points="63.7 56.8 63.7 64.1 62.8 63.2 62.8 57.6 63.7 56.8"/>
          <path class="cls-1" d="m63.7,64.2s-.1,0,0,0l-1-.9v-5.8l.9-.9h.1l.1.1v7.3c0,.1,0,.2-.1.2h0Zm-.7-1l.6.6v-6.7l-.6.6v5.5Z"/>
        </g>
        <g>
          <polygon class="cls-1" points="40.6 12.9 48 12.9 47.1 13.7 41.5 13.7 40.6 12.9"/>
          <path class="cls-1" d="m47.1,13.9h-5.7l-.9-.9v-.1l.1-.1h7.3q.1,0,.1.1v.1l-.9.9c.1,0,0,0,0,0Zm-5.6-.3h5.5l.6-.6h-6.7l.6.6Z"/>
        </g>
        <path class="cls-1" d="m1.9,78.2l-.2-.2.8-.8v-16.5l-.8-.8.2-.2.9.9v16.8l-.9.8Z"/>
        <g>
          <g>
            <path class="cls-1" d="m82.7,60.6h-1.3c-.1,0-.1-.1-.1-.1v-1.3h.3v1.1h1.1v.3Z"/>
            <path class="cls-1" d="m85.6,60.6h-1.3v-.3h1.1v-1.1h.3v1.3c.1.1,0,.1-.1.1Z"/>
            <path class="cls-1" d="m81.5,57.5h-.3v-1.3c0-.1.1-.1.1-.1h1.3v.3h-1.1v1.1Z"/>
            <path class="cls-1" d="m85.8,57.5h-.3v-1.1h-1.1v-.3h1.3c.1,0,.1.1.1.1v1.3Z"/>
          </g>
          <path class="cls-1" d="m84.5,59.5h-2c-.1,0-.1-.1-.1-.1v-2c0-.1.1-.1.1-.1h2c.1,0,.1.1.1.1v2q0,.1-.1.1Zm-1.8-.2h1.7v-1.7h-1.7v1.7Z"/>
        </g>
        <path class="cls-1" d="m65.8,72.2c-.1,0-.1-.1-.1-.1v-19l.9-.9v-9.9l-1-1v-5.1l-1-1q-.1-.1,0-.2t.2,0l1.1,1.1v5.1l1,1v10.1l-.9.9v18.9c0,.1-.1.1-.2.1Z"/>
        <path class="cls-1" d="m41.5,95.4h-5.8l-.9-.9h-17.6l-.8-.8q-.1-.1,0-.2t.2,0l.7.7h17.6l.9.9h5.7c.1,0,.1.1.1.1q0,.2-.1.2Z"/>
        <g>
          <rect class="cls-1" x="64.7" y="51.2" width="1" height=".3"/>
          <rect class="cls-1" x="64.7" y="50.4" width="1" height=".3"/>
          <rect class="cls-1" x="64.7" y="49.6" width="1" height=".3"/>
          <rect class="cls-1" x="64.7" y="48.8" width="1" height=".3"/>
          <rect class="cls-1" x="64.7" y="48" width="1" height=".3"/>
          <rect class="cls-1" x="64.7" y="47.2" width="1" height=".3"/>
          <rect class="cls-1" x="64.7" y="46.4" width="1" height=".3"/>
          <rect class="cls-1" x="64.7" y="45.6" width="1" height=".3"/>
          <rect class="cls-1" x="64.7" y="44.8" width="1" height=".3"/>
          <rect class="cls-1" x="64.7" y="44" width="1" height=".3"/>
          <rect class="cls-1" x="64.7" y="43.2" width="1" height=".3"/>
        </g>
        <rect class="cls-1" x="41.4" y="94.8" width=".3" height="1"/>
        <circle class="cls-1" cx="65.8" cy="72.1" r=".5"/>
        <polygon class="cls-1" points="78.2 13.7 76.4 11.9 74 11.9 74 11 76.7 11 78.8 13.1 78.2 13.7"/>
        <polygon class="cls-1" points="83.9 21.3 83.1 21.3 83.1 18.7 81.4 17 82 16.4 83.9 18.3 83.9 21.3"/>
        <path class="cls-1" d="m63.7,20.5l-3.5-3.5V4.5l-1.7-1.7.2-.2,1.7,1.7v12.5l3.5,3.5-.2.2Z"/>
      </g>
      <rect class="cls-1" x="10.3" y="39.6" width="44.8" height=".3"/>
      <path class="cls-1" d="m26.8,35.3h-15.9c-.1,0-.1-.1-.1-.1v-15.9c0-.1.1-.1.1-.1h15.9c.1,0,.1.1.1.1v15.9q0,.1-.1.1Zm-15.8-.2h15.7v-15.7h-15.7v15.7Z"/>
    </g>
  </g>
</svg>