<?xml version="1.0" encoding="UTF-8"?>
<svg id="Layer_2" data-name="Layer 2" xmlns="http://www.w3.org/2000/svg" viewBox="0 0 73.93 68.7">
  <defs>
    <style>
      .cls-1 {
        fill: #8cd5cf;
      }

      .cls-2 {
        fill: #163c5b;
      }
    </style>
  </defs>
  <g id="Layer_1-2" data-name="Layer 1">
    <g>
      <g>
        <rect class="cls-1" x=".87" y="11.43" width=".26" height="24.67"/>
        <path class="cls-1" d="m1.12,9h-.26v-3.75s.01-.07.04-.09l3.4-3.4s.06-.04.09-.04h3.75v.26h-3.69l-3.33,3.33v3.69Z"/>
        <rect class="cls-1" x="-.49" y="5.29" width="10.11" height=".26" transform="translate(-2.5 4.82) rotate(-45)"/>
        <path class="cls-1" d="m53.34,3.48l-2.58-2.58s-.06-.04-.09-.04h-10.2s-.07.01-.09.04l-.82.82h-12.33c-.05,0-.1.03-.12.08-.02.05,0,.1.03.14l.86.86s.06.04.09.04h6.88l.82.82s.06.04.09.04h12.91l3.47,3.47v4.66c0,.05.03.1.08.12.02,0,.03,0,.05,0,.03,0,.07-.01.09-.04l.86-.86s.04-.06.04-.09V3.57s-.01-.07-.04-.09Z"/>
        <path class="cls-1" d="m71.28,64.26h-.26v-20.41h-16.92c-.07,0-.13-.06-.13-.13v-8.28l-1.68-1.68s-.04-.06-.04-.09v-13.04h.26v12.98l1.68,1.68s.04.06.04.09v8.2h16.92c.07,0,.13.06.13.13v20.54Z"/>
        <path class="cls-1" d="m48.95,53.37h-11.07s-.07-.01-.09-.04l-2.11-2.11h-17.97l-2.11,2.11s-.06.04-.09.04H5.48v-.26h9.97l2.11-2.11s.06-.04.09-.04h18.08s.07.01.09.04l2.11,2.11h10.97l3.36-3.36v-13.6l-1.68-1.68s-.04-.06-.04-.09v-14.46s.01-.07.04-.09l1.68-1.68V5.92c0-2.18-1.77-3.95-3.95-3.95H10.58v-.26h37.74c2.32,0,4.2,1.89,4.2,4.2v12.28s-.01.07-.04.09l-1.68,1.68v14.36l1.68,1.68s.04.06.04.09v13.71s-.01.07-.04.09l-3.44,3.44s-.06.04-.09.04Z"/>
        <path class="cls-1" d="m1.98,43.33h-.26v-6.32l-.82-.82.18-.18.86.86s.04.06.04.09v6.37Z"/>
        <g>
          <path class="cls-1" d="m35.16,51.95s-.06-.04-.09-.04h-16.76s-.07.01-.09.04l-1.2,1.2s-.05.09-.03.14c.02.05.07.08.12.08h19.16c.05,0,.1-.03.12-.08.02-.05,0-.1-.03-.14l-1.2-1.2Z"/>
          <path class="cls-1" d="m1.98,49.4v-6.06c0-.05-.03-.1-.08-.12-.05-.02-.1,0-.14.03l-.86.86s-.04.06-.04.09v5.61s.01.07.04.09l3.44,3.44s.06.04.09.04h1.22c.05,0,.1-.03.12-.08.02-.05,0-.1-.03-.14l-3.76-3.76Z"/>
          <path class="cls-1" d="m12.29,1.72h-1.72s-.07.01-.09.04L.9,11.34s-.04.06-.04.09v1.72c0,.05.03.1.08.12.02,0,.03,0,.05,0,.03,0,.07-.01.09-.04L12.39,1.94s.05-.09.03-.14c-.02-.05-.07-.08-.12-.08Z"/>
          <polygon class="cls-1" points="52.26 20.58 52.26 26.16 53.38 25.05 53.38 19.46 52.26 20.58"/>
          <polygon class="cls-1" points="1.12 15.82 0 16.94 0 19.64 1.12 19.64 1.12 15.82"/>
          <rect class="cls-1" x="0" y="20.42" width="1.12" height="2.17"/>
          <rect class="cls-1" x="0" y="23.36" width="1.12" height="2.17"/>
          <polygon class="cls-1" points="1.12 26.3 0 26.3 0 29 1.12 30.12 1.12 26.3"/>
          <polygon class="cls-1" points="52.26 30.51 53.38 29.39 53.38 28.64 52.26 29.76 52.26 30.51"/>
          <polygon class="cls-1" points="52.26 27.65 53.38 26.53 53.38 25.78 52.26 26.89 52.26 27.65"/>
          <polygon class="cls-1" points="52.26 29.08 53.38 27.96 53.38 27.21 52.26 28.32 52.26 29.08"/>
        </g>
        <path class="cls-1" d="m12.78,1.12s-.07-.01-.09-.04c-.05-.05-.05-.13,0-.18l.9-.9h18.27l.86.86h6.2c.07,0,.13.06.13.13s-.06.13-.13.13h-6.31l-.86-.86H13.69l-.82.82s-.06.04-.09.04Z"/>
        <path class="cls-1" d="m54.11,47.5s-.03,0-.05,0c-.05-.02-.08-.07-.08-.12v-2.17c0-.07.06-.13.13-.13h2.17c.05,0,.1.03.12.08.02.05,0,.1-.03.14l-2.17,2.17s-.06.04-.09.04Zm.13-2.17v1.73l1.73-1.73h-1.73Z"/>
        <rect class="cls-1" x="46.17" y="50.53" width="7.29" height=".26" transform="translate(-21.24 50.06) rotate(-45)"/>
      </g>
      <g>
        <g>
          <path class="cls-1" d="m73.8,68.7h-1.59v-.26h1.46v-1.46h.26v1.59c0,.07-.06.13-.13.13Z"/>
          <path class="cls-1" d="m70.09,68.7h-1.59c-.07,0-.13-.06-.13-.13v-1.59h.26v1.46h1.46v.26Z"/>
          <path class="cls-1" d="m73.93,64.86h-.26v-1.46h-1.46v-.26h1.59c.07,0,.13.06.13.13v1.59Z"/>
          <path class="cls-1" d="m68.63,64.86h-.26v-1.59c0-.07.06-.13.13-.13h1.59v.26h-1.46v1.46Z"/>
        </g>
        <path class="cls-1" d="m72.66,67.56h-3.02c-.07,0-.13-.06-.13-.13v-3.02c0-.07.06-.13.13-.13h3.02c.07,0,.13.06.13.13v3.02c0,.07-.06.13-.13.13Zm-2.89-.26h2.76v-2.76h-2.76v2.76Z"/>
      </g>
      <rect class="cls-1" x=".87" y="37.65" width=".26" height="4.72"/>
      <polygon class="cls-2" points="14.79 51.52 16.94 49.37 36.44 49.37 38.59 51.52 46.52 51.52 50.67 47.37 50.67 36.81 48.95 35.09 48.95 19.21 50.67 17.49 50.67 7.82 48.14 5.28 35.17 5.28 34.31 4.43 27.38 4.43 26.52 3.57 13.01 3.57 2.71 13.86 2.71 35.39 3.57 36.25 3.57 48.74 6.36 51.52 14.79 51.52"/>
    </g>
  </g>
</svg>