<?xml version="1.0" encoding="UTF-8"?>
<svg id="Layer_2" data-name="Layer 2" xmlns="http://www.w3.org/2000/svg" viewBox="0 0 98.77 57.86">
  <defs>
    <style>
      .cls-1 {
        fill: #8cd5cf;
      }

      .cls-2 {
        fill: #121629;
      }

      .cls-3 {
        fill: #163c5b;
      }
    </style>
  </defs>
  <g id="Layer_1-2" data-name="Layer 1">
    <g>
      <path class="cls-1" d="m84.35,56.14H9.61s-.07-.01-.09-.04l-7.76-7.76s-.04-.06-.04-.09V9.65c0-.07.06-.13.13-.13h16.19s.07.01.09.04l2.09,2.09h16.91l2.09-2.09s.06-.04.09-.04h45.04s.07.01.09.04l4.5,4.5s.04.06.04.09v7.51s-.01.07-.04.09l-2.36,2.36v8.66l2.36,2.36s.04.06.04.09v3.51h-.26v-3.46l-2.36-2.36s-.04-.06-.04-.09v-8.77s.01-.07.04-.09l2.36-2.36v-7.41l-4.42-4.42h-44.93l-2.09,2.09s-.06.04-.09.04h-17.02s-.07-.01-.09-.04l-2.09-2.09H1.98v38.41l7.69,7.69h74.63l4.42-4.42v-9.06h.26v9.12s-.01.07-.04.09l-4.5,4.5s-.06.04-.09.04Z"/>
      <polygon class="cls-3" points="84.74 23.34 84.74 33.53 87.13 35.93 87.13 50.8 83.64 54.29 69.57 54.29 68.71 53.43 58.16 53.43 57.3 54.29 44.48 54.29 43.62 53.43 25.08 53.43 24.22 54.29 11.33 54.29 11.33 11.37 17.32 11.37 19.45 13.5 37.9 13.5 40.03 11.37 83.64 11.37 87.13 14.86 87.13 20.95 84.74 23.34"/>
      <g>
        <polygon class="cls-1" points="1.85 9.65 1.85 48.24 9.61 56.01 9.61 9.65 1.85 9.65"/>
        <path class="cls-1" d="m9.61,56.14s-.07-.01-.09-.04l-7.76-7.76s-.04-.06-.04-.09V9.65c0-.07.06-.13.13-.13h7.76c.07,0,.13.06.13.13v46.36c0,.05-.03.1-.08.12-.02,0-.03,0-.05,0Zm-7.64-7.95l7.51,7.51V9.78H1.98v38.41Z"/>
      </g>
      <path class="cls-1" d="m28.47,9.69l-.18-.18,7.38-7.38s.06-.04.09-.04h58.7v.26h-58.64l-7.35,7.35Z"/>
      <g>
        <g>
          <path class="cls-1" d="m.13,11.37v13.29c.67.67,1.05,1.05,1.72,1.72h0V9.65l-1.72,1.72Z"/>
          <path class="cls-1" d="m1.85,26.5s-.07-.01-.09-.04L.04,24.75s-.04-.06-.04-.09v-13.29s.01-.07.04-.09l1.72-1.72s.09-.05.14-.03.08.07.08.12v16.73c0,.05-.03.1-.08.12-.02,0-.03,0-.05,0Zm-1.59-1.9l1.46,1.46V9.96l-1.46,1.46v13.18Z"/>
        </g>
        <g>
          <polygon class="cls-1" points=".13 26.45 1.85 28.17 1.85 28.95 .13 27.23 .13 26.45"/>
          <path class="cls-1" d="m1.98,29.26l-1.98-1.98v-1.14l1.98,1.98v1.14Zm-1.72-2.08l1.46,1.46v-.41l-1.46-1.46v.41Z"/>
        </g>
        <g>
          <polygon class="cls-1" points=".13 29.02 1.85 30.74 1.85 31.52 .13 29.8 .13 29.02"/>
          <path class="cls-1" d="m1.98,31.83l-1.98-1.98v-1.14l1.98,1.98v1.14Zm-1.72-2.08l1.46,1.46v-.41l-1.46-1.46v.41Z"/>
        </g>
        <g>
          <polygon class="cls-1" points=".13 31.59 1.85 33.31 1.85 34.09 .13 32.37 .13 31.59"/>
          <path class="cls-1" d="m1.98,34.4l-1.98-1.98v-1.14l1.98,1.98v1.14Zm-1.72-2.08l1.46,1.46v-.41l-1.46-1.46v.41Z"/>
        </g>
      </g>
      <g>
        <polygon class="cls-1" points="68.85 56.01 58.02 56.01 58.88 55.15 68 55.15 68.85 56.01"/>
        <path class="cls-1" d="m68.85,56.14h-10.84c-.05,0-.1-.03-.12-.08-.02-.05,0-.1.03-.14l.86-.86s.06-.04.09-.04h9.12s.07.01.09.04l.86.86s.05.09.03.14c-.02.05-.07.08-.12.08Zm-10.53-.26h10.22l-.6-.6h-9.01l-.6.6Z"/>
      </g>
      <g>
        <g>
          <path class="cls-1" d="m69.1,7.88h-12.47c-.67.67-1.05,1.05-1.72,1.72h15.91c-.67-.67-1.05-1.05-1.72-1.72Z"/>
          <path class="cls-1" d="m70.82,9.73h-15.91c-.05,0-.1-.03-.12-.08-.02-.05,0-.1.03-.14l1.72-1.72s.06-.04.09-.04h12.47s.07.01.09.04l1.72,1.72s.05.09.03.14c-.02.05-.07.08-.12.08Zm-15.6-.26h15.29l-1.46-1.46h-12.37l-1.46,1.46Z"/>
        </g>
        <g>
          <polygon class="cls-1" points="54.83 7.88 53.12 9.6 52.34 9.6 54.06 7.88 54.83 7.88"/>
          <path class="cls-1" d="m53.17,9.73h-1.14l1.98-1.98h1.14l-1.98,1.98Zm-.52-.26h.41l1.46-1.46h-.41l-1.46,1.46Z"/>
        </g>
        <g>
          <polygon class="cls-1" points="52.26 7.88 50.55 9.6 49.77 9.6 51.49 7.88 52.26 7.88"/>
          <path class="cls-1" d="m50.6,9.73h-1.14l1.98-1.98h1.14l-1.98,1.98Zm-.52-.26h.41l1.46-1.46h-.41l-1.46,1.46Z"/>
        </g>
      </g>
      <g>
        <path class="cls-1" d="m32.82,57.73h25.58c.67-.67,1.05-1.05,1.72-1.72h-29.02c.67.67,1.05,1.05,1.72,1.72Z"/>
        <path class="cls-1" d="m58.41,57.86h-25.58s-.07-.01-.09-.04l-1.72-1.72s-.05-.09-.03-.14c.02-.05.07-.08.12-.08h29.02c.05,0,.1.03.12.08.02.05,0,.1-.03.14l-1.72,1.72s-.06.04-.09.04Zm-25.53-.26h25.48l1.46-1.46h-28.4l1.46,1.46Z"/>
      </g>
      <g>
        <polygon class="cls-1" points="67.18 56.05 73.72 56.05 72.86 56.91 68.03 56.91 67.18 56.05"/>
        <path class="cls-1" d="m72.86,57.04h-4.82s-.07-.01-.09-.04l-.86-.86s-.05-.09-.03-.14.07-.08.12-.08h6.54c.05,0,.1.03.12.08s0,.1-.03.14l-.86.86s-.06.04-.09.04Zm-4.77-.26h4.72l.6-.6h-5.92l.6.6Z"/>
      </g>
      <g>
        <polygon class="cls-1" points="22.96 56.05 33.8 56.05 32.94 56.91 23.82 56.91 22.96 56.05"/>
        <path class="cls-1" d="m32.94,57.04h-9.12s-.07-.01-.09-.04l-.86-.86s-.05-.09-.03-.14c.02-.05.07-.08.12-.08h10.84c.05,0,.1.03.12.08.02.05,0,.1-.03.14l-.86.86s-.06.04-.09.04Zm-9.07-.26h9.01l.6-.6h-10.22l.6.6Z"/>
      </g>
      <g>
        <polygon class="cls-1" points="18.04 9.65 3.96 9.65 4.82 8.79 17.19 8.79 18.04 9.65"/>
        <path class="cls-1" d="m18.04,9.78H3.96c-.05,0-.1-.03-.12-.08-.02-.05,0-.1.03-.14l.86-.86s.06-.04.09-.04h12.37s.07.01.09.04l.86.86s.05.09.03.14c-.02.05-.07.08-.12.08Zm-13.78-.26h13.46l-.6-.6H4.87l-.6.6Z"/>
      </g>
      <g>
        <polygon class="cls-1" points="20.13 9.6 37.14 9.6 36.28 10.46 20.99 10.46 20.13 9.6"/>
        <path class="cls-1" d="m36.28,10.59h-15.29s-.07-.01-.09-.04l-.86-.86s-.05-.09-.03-.14c.02-.05.07-.08.12-.08h17.01c.05,0,.1.03.12.08.02.05,0,.1-.03.14l-.86.86s-.06.04-.09.04Zm-15.24-.26h15.18l.6-.6h-16.39l.6.6Z"/>
      </g>
      <g>
        <g>
          <path class="cls-1" d="m42.91,55.15h-11.97l-.86.86h13.69l-.86-.86Z"/>
          <path class="cls-1" d="m30.08,56.14h-.31l1.12-1.12h12.08l1.12,1.12h-14Zm.31-.26h13.07l-.6-.6h-11.86l-.6.6Z"/>
        </g>
        <g>
          <polygon class="cls-1" points="29.61 55.15 28.75 56.01 28.37 56.01 29.22 55.15 29.61 55.15"/>
          <path class="cls-1" d="m28.81,56.14h-.75l1.12-1.12h.75l-1.12,1.12Zm-.13-.26h.02l.6-.6h-.02l-.6.6Z"/>
        </g>
        <g>
          <polygon class="cls-1" points="27.9 55.15 27.04 56.01 26.65 56.01 27.51 55.15 27.9 55.15"/>
          <path class="cls-1" d="m27.09,56.14h-.75l1.12-1.12h.75l-1.12,1.12Zm-.13-.26h.02l.6-.6h-.02l-.6.6Z"/>
        </g>
        <g>
          <polygon class="cls-1" points="26.18 55.15 25.32 56.01 24.94 56.01 25.79 55.15 26.18 55.15"/>
          <path class="cls-1" d="m25.38,56.14h-.75l1.12-1.12h.75l-1.12,1.12Zm-.13-.26h.02l.6-.6h-.02l-.6.6Z"/>
        </g>
      </g>
      <g>
        <path class="cls-1" d="m96.55,4.44c-1.22,0-2.22-1-2.22-2.22s1-2.22,2.22-2.22,2.22,1,2.22,2.22-1,2.22-2.22,2.22Zm0-4.18c-1.08,0-1.96.88-1.96,1.96s.88,1.96,1.96,1.96,1.96-.88,1.96-1.96-.88-1.96-1.96-1.96Z"/>
        <rect class="cls-1" x="95.51" y="2.09" width="2.09" height=".26" transform="translate(26.69 68.9) rotate(-44.98)"/>
        <rect class="cls-1" x="96.42" y="1.17" width=".26" height="2.09" transform="translate(26.71 68.92) rotate(-45)"/>
      </g>
      <g>
        <path class="cls-2" d="m36.41,2.22c0,.36-.29.64-.64.64s-.64-.29-.64-.64.29-.64.64-.64.64.29.64.64Z"/>
        <path class="cls-1" d="m35.76,2.99c-.43,0-.77-.35-.77-.77s.35-.77.77-.77.77.35.77.77-.35.77-.77.77Zm0-1.29c-.28,0-.52.23-.52.52s.23.52.52.52.52-.23.52-.52-.23-.52-.52-.52Z"/>
      </g>
      <g>
        <rect class="cls-1" x="88.33" y="40.85" width="1.03" height=".26"/>
        <rect class="cls-1" x="88.33" y="40.06" width="1.03" height=".26"/>
        <rect class="cls-1" x="88.33" y="39.27" width="1.03" height=".26"/>
        <rect class="cls-1" x="88.33" y="38.47" width="1.03" height=".26"/>
      </g>
      <rect class="cls-1" x="14.77" y="25.79" width="66.53" height=".26"/>
    </g>
  </g>
</svg>