<?xml version="1.0" encoding="UTF-8"?>
<svg id="Layer_2" data-name="Layer 2" xmlns="http://www.w3.org/2000/svg" viewBox="0 0 110.4 61.96">
  <defs>
    <style>
      .cls-1 {
        fill: #8cd5cf;
      }

      .cls-2 {
        fill: #163c5b;
      }
    </style>
  </defs>
  <g id="Layer_1-2" data-name="Layer 1">
    <g>
      <path class="cls-1" d="m1.12,25.07h-.26V6.13s.01-.07.04-.09l2.7-2.7.18.18-2.66,2.66v18.88Z"/>
      <path class="cls-1" d="m104.42,38.16H2.71c-.07,0-.13-.06-.13-.13V6.84s.01-.07.04-.09L7.61,1.76s.06-.04.09-.04h78.61v.26H7.75L2.84,6.89v31h101.53l4.92-4.92V1.98h-19.74v-.26h19.87c.07,0,.13.06.13.13v31.19s-.01.07-.04.09l-4.99,4.99s-.06.04-.09.04Z"/>
      <polygon class="cls-2" points="37.17 3.57 37.17 36.31 26.98 36.31 26.12 35.45 15.47 35.45 14.61 36.31 4.43 36.31 4.43 7.55 8.41 3.57 37.17 3.57"/>
      <path class="cls-1" d="m91.93,59.85l-11.63-10.77H30.87s-.07-.01-.09-.04l-10.07-10.07.18-.18,10.03,10.03h49.43s.06.01.09.03l11.66,10.8-.18.19Z"/>
      <path class="cls-1" d="m63.54,2.84h-16.1s-.07-.01-.09-.04l-.86-.86.18-.18.82.82h15.99l.82-.82.18.18-.86.86s-.06.04-.09.04Z"/>
      <path class="cls-1" d="m35.45,34.72h-7.76s-.07-.01-.09-.04l-.82-.82h-11.96l-.82.82s-.06.04-.09.04h-7.76c-.07,0-.13-.06-.13-.13V8.26s.01-.07.04-.09l2.98-2.98s.06-.04.09-.04h26.33c.07,0,.13.06.13.13v29.3c0,.07-.06.13-.13.13Zm-7.7-.26h7.58V5.41H9.18l-2.9,2.9v26.14h7.58l.82-.82s.06-.04.09-.04h12.07s.07.01.09.04l.82.82Z"/>
      <g>
        <polygon class="cls-1" points="26.27 38.03 15.33 38.03 16.19 37.17 25.41 37.17 26.27 38.03"/>
        <path class="cls-1" d="m26.27,38.16h-10.94c-.05,0-.1-.03-.12-.08-.02-.05,0-.1.03-.14l.86-.86s.06-.04.09-.04h9.22s.07.01.09.04l.86.86s.05.09.03.14c-.02.05-.07.08-.12.08Zm-10.63-.26h10.32l-.6-.6h-9.12l-.6.6Z"/>
      </g>
      <g>
        <g>
          <path class="cls-1" d="m92.41,37.17h-19.71l-.86.86h21.42l-.86-.86Z"/>
          <path class="cls-1" d="m93.58,38.16h-22.05l1.12-1.12h19.81l1.12,1.12Zm-21.42-.26h20.8l-.6-.6h-19.6l-.6.6Z"/>
        </g>
        <g>
          <polygon class="cls-1" points="71.38 37.17 70.52 38.03 70.13 38.03 70.99 37.17 71.38 37.17"/>
          <path class="cls-1" d="m70.57,38.16h-.75l1.12-1.12h.75l-1.12,1.12Zm-.13-.26h.02l.6-.6h-.02l-.6.6Z"/>
        </g>
        <g>
          <polygon class="cls-1" points="69.66 37.17 68.8 38.03 68.41 38.03 69.27 37.17 69.66 37.17"/>
          <path class="cls-1" d="m68.86,38.16h-.75l1.12-1.12h.75l-1.12,1.12Zm-.13-.26h.02l.6-.6h-.02l-.6.6Z"/>
        </g>
        <g>
          <polygon class="cls-1" points="67.95 37.17 67.09 38.03 66.7 38.03 67.56 37.17 67.95 37.17"/>
          <path class="cls-1" d="m67.14,38.16h-.75l1.12-1.12h.75l-1.12,1.12Zm-.13-.26h.02l.6-.6h-.02l-.6.6Z"/>
        </g>
      </g>
      <path class="cls-1" d="m109.51,21.42l-.18-.18.82-.82v-11.38l-.82-.82.18-.18.86.86s.04.06.04.09v11.49s-.01.07-.04.09l-.86.86Z"/>
      <g>
        <g>
          <path class="cls-1" d="m92.63,59.09c.35.35.35.93,0,1.28-.35.35-.93.35-1.28,0-.35-.35-.35-.93,0-1.28.35-.35.93-.35,1.28,0Z"/>
          <path class="cls-1" d="m91.99,60.77c-.28,0-.54-.11-.73-.3-.4-.4-.4-1.06,0-1.46.4-.4,1.06-.4,1.46,0,.19.19.3.45.3.73s-.11.54-.3.73-.45.3-.73.3Zm0-1.81c-.2,0-.4.08-.55.23-.3.3-.3.79,0,1.1.15.15.34.23.55.23s.4-.08.55-.23c.15-.15.23-.34.23-.55s-.08-.4-.23-.55c-.15-.15-.35-.23-.55-.23Z"/>
        </g>
        <path class="cls-1" d="m91.99,61.96c-.39,0-.78-.1-1.11-.3-.34-.2-.62-.48-.82-.82-.2-.34-.3-.72-.3-1.11s.1-.78.3-1.11l.22.13c-.17.3-.26.64-.26.98s.09.69.26.98c.17.3.42.55.72.72.3.17.64.26.98.26s.69-.09.98-.26c.3-.17.55-.42.72-.72.17-.3.26-.64.26-.98s-.09-.69-.26-.98c-.17-.3-.42-.55-.72-.72-.3-.17-.64-.26-.98-.26s-.69.09-.98.26l-.13-.22c.34-.2.72-.3,1.11-.3s.78.1,1.11.3c.34.2.62.48.82.82.19.34.3.72.3,1.11s-.1.78-.3,1.11c-.2.34-.48.62-.82.82-.34.19-.72.3-1.11.3Z"/>
      </g>
      <g>
        <polygon class="cls-1" points="80.85 38.03 82.56 39.75 97.89 39.75 99.61 38.03 80.85 38.03"/>
        <path class="cls-1" d="m82.56,39.88h-.05l-1.98-1.98h19.38s-1.98,1.98-1.98,1.98h-15.38Zm-1.41-1.72l1.46,1.46h15.22s1.46-1.46,1.46-1.46h-18.14Z"/>
      </g>
      <g>
        <polygon class="cls-1" points="59.36 1.85 57.65 .13 17.94 .13 16.23 1.85 59.36 1.85"/>
        <path class="cls-1" d="m16.23,1.98h-.31L17.89,0h39.81s1.98,1.98,1.98,1.98H16.23Zm1.77-1.72l-1.46,1.46h42.52s-1.46-1.46-1.46-1.46H18Z"/>
      </g>
      <g>
        <polygon class="cls-1" points="70.2 1.85 69.34 .99 49.49 .99 48.63 1.85 70.2 1.85"/>
        <path class="cls-1" d="m48.63,1.98h-.31l1.12-1.12h19.96l1.12,1.12h-21.88Zm.91-.86l-.6.6h20.95l-.6-.6h-19.74Z"/>
      </g>
      <g>
        <polygon class="cls-1" points="10.01 38.03 10.87 38.89 30.72 38.89 31.58 38.03 10.01 38.03"/>
        <path class="cls-1" d="m10.87,39.02h-.05l-1.12-1.12h22.19s-1.12,1.12-1.12,1.12H10.87Zm-.55-.86l.6.6h19.74s.6-.6.6-.6H10.32Z"/>
      </g>
      <rect class="cls-1" x="3.56" y="2.69" width=".26" height="1.47" transform="translate(-1.34 3.61) rotate(-45)"/>
      <g>
        <polygon class="cls-1" points=".99 24.22 .99 28.2 .13 27.34 .13 25.08 .99 24.22"/>
        <path class="cls-1" d="m.99,28.33s-.07-.01-.09-.04l-.86-.86s-.04-.06-.04-.09v-2.26s.01-.07.04-.09l.86-.86s.09-.05.14-.03c.05.02.08.07.08.12v3.98c0,.05-.03.1-.08.12-.02,0-.03,0-.05,0Zm-.73-1.04l.6.6v-3.36l-.6.6v2.15Z"/>
      </g>
      <polygon class="cls-1" points="33.44 49.39 30.69 49.39 28.59 47.29 29.2 46.68 31.04 48.53 33.44 48.53 33.44 49.39"/>
      <polygon class="cls-1" points="82.06 51.21 80.22 49.37 77.82 49.37 77.82 48.51 80.58 48.51 82.67 50.6 82.06 51.21"/>
      <g>
        <rect class="cls-1" x="89.41" y="1.33" width=".26" height="1.03"/>
        <rect class="cls-1" x="88.62" y="1.33" width=".26" height="1.03"/>
        <rect class="cls-1" x="87.83" y="1.33" width=".26" height="1.03"/>
        <rect class="cls-1" x="87.04" y="1.33" width=".26" height="1.03"/>
      </g>
      <rect class="cls-1" x="42.94" y="38.76" width="18.1" height=".26"/>
    </g>
  </g>
</svg>