<?xml version="1.0" encoding="UTF-8"?>
<svg id="Layer_2" data-name="Layer 2" xmlns="http://www.w3.org/2000/svg" viewBox="0 0 126.89 82.37">
  <defs>
    <style>
      .cls-1 {
        fill: #8cd5cf;
      }

      .cls-2 {
        fill: #163c5b;
      }
    </style>
  </defs>
  <g id="Layer_1-2" data-name="Layer 1">
    <g>
      <polygon class="cls-2" points="125.05 12.49 125.05 24.54 123.33 26.26 123.33 34.04 87.54 34.04 86.68 33.18 75.49 33.18 74.63 34.04 62.39 34.04 62.39 31.03 63.87 29.54 63.87 17.5 62.39 16.01 62.39 12.49 87.85 12.49 88.71 13.35 116.55 13.35 117.41 12.49 125.05 12.49"/>
      <path class="cls-1" d="m126.77,35.88H28.46c-.07,0-.13-.06-.13-.13V2.69c0-.07.06-.13.13-.13h92.97s.07.01.09.04l5.33,5.33s.04.06.04.09v27.73c0,.07-.06.13-.13.13Zm-98.17-.26h98.04V8.08l-5.26-5.26H28.59v32.81Z"/>
      <polygon class="cls-2" points="58.42 17.5 58.42 29.54 59.81 30.93 59.81 34.04 52.54 34.04 51.68 33.18 45.97 33.18 45.11 34.04 30.18 34.04 30.18 26.43 31.19 25.42 31.19 13.03 30.18 12.02 30.18 4.41 52.64 4.41 59.81 11.58 59.81 16.11 58.42 17.5"/>
      <path class="cls-1" d="m61.15,29.97s-.07-.01-.09-.04l-1.01-1.01s-.04-.06-.04-.09v-10.62s.01-.07.04-.09l1.01-1.01c.05-.05.13-.05.18,0l1.01,1.01s.04.06.04.09v10.62s-.01.07-.04.09l-1.01,1.01s-.06.04-.09.04Zm-.88-1.19l.88.88.88-.88v-10.51l-.88-.88-.88.88v10.51Z"/>
      <rect class="cls-1" x="61.02" y="2.69" width=".26" height="14.51"/>
      <rect class="cls-1" x="61.02" y="29.84" width=".26" height="5.92"/>
      <g>
        <path class="cls-1" d="m126.77,10.77H61.15c-3.16-3.16-4.93-4.93-8.08-8.08h68.37l5.33,5.33v2.75Z"/>
        <path class="cls-1" d="m126.77,10.9H61.15s-.07-.01-.09-.04l-8.08-8.08s-.05-.09-.03-.14c.02-.05.07-.08.12-.08h68.37s.07.01.09.04l5.33,5.33s.04.06.04.09v2.75c0,.07-.06.13-.13.13Zm-65.57-.26h65.44v-2.57l-5.26-5.26H53.38l7.82,7.82Z"/>
      </g>
      <path class="cls-1" d="m3.77,78.75l-.18-.18,7.2-7.2V28.23s.01-.07.04-.09l9.01-9.01s.06-.04.09-.04h7.18v.26h-7.13l-8.94,8.94v43.13s-.01.07-.04.09l-7.24,7.24Z"/>
      <g>
        <g>
          <polygon class="cls-1" points="41.28 36.62 41.28 35.76 47.6 35.75 46.74 36.61 41.28 36.62"/>
          <path class="cls-1" d="m41.15,36.75v-1.12h6.76s-1.12,1.12-1.12,1.12h-5.65Zm.26-.86v.6h5.28s.6-.6.6-.6h-5.88Z"/>
        </g>
        <g>
          <rect class="cls-1" x="38.34" y="35.76" width="1.91" height=".86"/>
          <path class="cls-1" d="m38.21,36.75v-1.12h2.17s0,1.12,0,1.12h-2.17Zm.26-.86v.6h1.65v-.6h-1.65Z"/>
        </g>
        <g>
          <polygon class="cls-1" points="34.78 36.62 33.92 35.76 37.31 35.76 37.31 36.62 34.78 36.62"/>
          <path class="cls-1" d="m34.73,36.75l-1.12-1.12h3.82s0,1.11,0,1.11h-2.71Zm-.49-.86l.6.6h2.34v-.6h-2.94Z"/>
        </g>
      </g>
      <g>
        <polygon class="cls-1" points="38.84 2.67 37.13 .96 30.19 .95 28.46 2.67 38.84 2.67"/>
        <path class="cls-1" d="m28.46,2.8c-.05,0-.1-.03-.12-.08-.02-.05,0-.1.03-.14l1.73-1.73s.06-.04.09-.04h6.93s.07.02.09.05l1.72,1.72s.05.09.03.14c-.02.05-.07.08-.12.08h-10.38Zm1.78-1.73l-1.47,1.47h9.76s-1.46-1.46-1.46-1.46h-6.82Z"/>
      </g>
      <g>
        <polygon class="cls-1" points="59.12 2.69 58.26 1.83 37.53 1.83 36.68 2.69 59.12 2.69"/>
        <path class="cls-1" d="m36.68,2.82c-.05,0-.1-.03-.12-.08-.02-.05,0-.1.03-.14l.86-.86s.06-.04.09-.04h20.73s.07.01.09.04l.86.86s.05.09.03.14c-.02.05-.07.08-.12.08h-22.44Zm.91-.86l-.6.6h21.82s-.6-.6-.6-.6h-20.62Z"/>
      </g>
      <g>
        <polygon class="cls-1" points="125.05 26.97 126.77 25.25 126.77 35.75 125.05 35.75 125.05 26.97"/>
        <path class="cls-1" d="m126.77,35.88h-1.72c-.07,0-.13-.06-.13-.13v-8.78s.01-.07.04-.09l1.72-1.72s.09-.05.14-.03c.05.02.08.07.08.12v10.5c0,.07-.06.13-.13.13Zm-1.59-.26h1.46v-10.06l-1.46,1.46v8.6Z"/>
      </g>
      <g>
        <polygon class="cls-1" points="28.62 25.56 28.62 12.88 29.47 13.74 29.47 24.7 28.62 25.56"/>
        <path class="cls-1" d="m28.62,25.69s-.03,0-.05,0c-.05-.02-.08-.07-.08-.12v-12.68c0-.05.03-.1.08-.12.05-.02.1,0,.14.03l.86.86s.04.06.04.09v10.96s-.01.07-.04.09l-.86.86s-.06.04-.09.04Zm.13-12.5v12.06l.6-.6v-10.86l-.6-.6Z"/>
      </g>
      <g>
        <polygon class="cls-1" points="88.57 10.77 116.7 10.77 115.84 11.63 89.43 11.63 88.57 10.77"/>
        <path class="cls-1" d="m115.84,11.76h-26.41s-.07-.01-.09-.04l-.86-.86s-.05-.09-.03-.14.07-.08.12-.08h28.13c.05,0,.1.03.12.08s0,.1-.03.14l-.86.86s-.06.04-.09.04Zm-26.36-.26h26.3l.6-.6h-27.51l.6.6Z"/>
      </g>
      <g>
        <polygon class="cls-1" points="51.83 35.75 45.82 35.75 46.68 34.89 50.97 34.89 51.83 35.75"/>
        <path class="cls-1" d="m51.83,35.88h-6.01c-.05,0-.1-.03-.12-.08-.02-.05,0-.1.03-.14l.86-.86s.06-.04.09-.04h4.29s.07.01.09.04l.86.86s.05.09.03.14-.07.08-.12.08Zm-5.7-.26h5.39l-.6-.6h-4.19l-.6.6Z"/>
      </g>
      <path class="cls-1" d="m86.74,35.85l-.82-.82h-9.66l-.82.82-.18-.18.86-.86s.06-.04.09-.04h9.77s.07.01.09.04l.86.86-.18.18Z"/>
      <g>
        <path class="cls-1" d="m3.64,82.37H.13c-.07,0-.13-.06-.13-.13v-3.51s.01-.07.04-.09c.02-.02.06-.04.09-.04h3.51c.07,0,.13.06.13.13v3.51s-.01.07-.04.09-.06.04-.09.04Zm-3.38-.26h3.25v-3.25H.26v3.25Z"/>
        <rect class="cls-1" x="1.04" y="79.65" width="1.68" height="1.68" transform="translate(3.77 160.97) rotate(180)"/>
      </g>
      <g>
        <polygon class="cls-1" points="101.77 35.75 126.77 35.75 125.91 36.61 102.63 36.61 101.77 35.75"/>
        <path class="cls-1" d="m125.91,36.74h-23.28s-.07-.01-.09-.04l-.86-.86s-.05-.09-.03-.14c.02-.05.07-.08.12-.08h24.99c.05,0,.1.03.12.08.02.05,0,.1-.03.14l-.86.86s-.06.04-.09.04Zm-23.22-.26h23.17l.6-.6h-24.37l.6.6Z"/>
      </g>
      <g>
        <g>
          <polygon class="cls-1" points="60.92 2.69 60.06 1.83 59.67 1.83 60.53 2.69 60.92 2.69"/>
          <path class="cls-1" d="m61.23,2.82h-.75l-1.12-1.12h.75l1.12,1.12Zm-.65-.26h.02l-.6-.6h-.02l.6.6Z"/>
        </g>
        <g>
          <polygon class="cls-1" points="63.78 2.69 62.92 1.83 62.53 1.83 63.39 2.69 63.78 2.69"/>
          <path class="cls-1" d="m64.09,2.82h-.75l-1.12-1.12h.75l1.12,1.12Zm-.65-.26h.02l-.6-.6h-.02l.6.6Z"/>
        </g>
        <g>
          <polygon class="cls-1" points="62.35 2.69 61.49 1.83 61.1 1.83 61.96 2.69 62.35 2.69"/>
          <path class="cls-1" d="m62.66,2.82h-.75l-1.12-1.12h.75l1.12,1.12Zm-.65-.26h.02l-.6-.6h-.02l.6.6Z"/>
        </g>
      </g>
      <path class="cls-1" d="m113.2,38.35h-11.16s-.07-.01-.09-.04l-1.19-1.19h-3.92v-.26h3.97s.07.01.09.04l1.19,1.19h11.1v.26Z"/>
      <g>
        <polygon class="cls-1" points="110.48 1.38 114.27 1.38 113.41 .52 111.34 .52 110.48 1.38"/>
        <path class="cls-1" d="m114.27,1.5h-3.79c-.05,0-.1-.03-.12-.08-.02-.05,0-.1.03-.14l.86-.86s.06-.04.09-.04h2.07s.07.01.09.04l.86.86s.05.09.03.14-.07.08-.12.08Zm-3.48-.26h3.17l-.6-.6h-1.97l-.6.6Z"/>
      </g>
      <path class="cls-1" d="m110.48,1.5h-7.45l-.86-.86h-26.28c-.07,0-.13-.06-.13-.13s.06-.13.13-.13h26.39l.86.86h7.35c.07,0,.13.06.13.13s-.06.13-.13.13Z"/>
      <path class="cls-1" d="m113.72,38.22c0,.28-.23.52-.52.52s-.52-.23-.52-.52.23-.52.52-.52.52.23.52.52Z"/>
      <path class="cls-1" d="m76.4.52c0,.28-.23.52-.52.52s-.52-.23-.52-.52.23-.52.52-.52.52.23.52.52Z"/>
      <g>
        <rect class="cls-1" x="96.71" y="36.47" width=".26" height="1.03"/>
        <rect class="cls-1" x="95.92" y="36.47" width=".26" height="1.03"/>
        <rect class="cls-1" x="95.13" y="36.47" width=".26" height="1.03"/>
        <rect class="cls-1" x="94.34" y="36.47" width=".26" height="1.03"/>
      </g>
      <path class="cls-1" d="m10.35,73.71l-.18-.18,1.79-1.79v-2.52h.26v2.58s-.01.07-.04.09l-1.82,1.82Z"/>
      <path class="cls-1" d="m9.68,30.35h-.26v-2.58s.01-.07.04-.09l1.82-1.82.18.18-1.79,1.79v2.52Z"/>
      <g>
        <polygon class="cls-1" points="102 2.46 90.61 2.46 91.47 1.6 101.14 1.6 102 2.46"/>
        <path class="cls-1" d="m102,2.59h-11.39c-.05,0-.1-.03-.12-.08-.02-.05,0-.1.03-.14l.86-.86s.06-.04.09-.04h9.67s.07.01.09.04l.86.86s.05.09.03.14c-.02.05-.07.08-.12.08Zm-11.08-.26h10.77l-.6-.6h-9.57l-.6.6Z"/>
      </g>
    </g>
  </g>
</svg>