<?xml version="1.0" encoding="UTF-8"?>
<svg id="Layer_2" data-name="Layer 2" xmlns="http://www.w3.org/2000/svg" viewBox="0 0 100.11 58.03">
  <defs>
    <style>
      .cls-1 {
        fill: #8cd5cf;
      }

      .cls-2 {
        fill: #163c5b;
      }
    </style>
  </defs>
  <g id="Layer_1-2" data-name="Layer 1">
    <g>
      <path class="cls-1" d="m99.12,23.53h-60.63s-.07-.01-.09-.04l-3.54-3.54h-4.21v-.26h4.27s.07.01.09.04l3.54,3.54h60.45v-4.13h.26v4.26c0,.07-.06.13-.13.13Z"/>
      <path class="cls-1" d="m3.69,6.45l-.18-.18L8.01,1.77s.06-.04.09-.04h80.1v.26H8.16L3.69,6.45Z"/>
      <polygon class="cls-2" points="97.4 12.63 97.4 21.68 73.56 21.68 72.7 20.82 65.68 20.82 64.82 21.68 39.12 21.68 39.12 21.6 35.63 18.1 5.32 18.1 5.32 7.07 8.81 3.58 60.67 3.58 61.56 4.47 79.94 4.47 80.83 3.58 88.35 3.58 97.4 12.63"/>
      <path class="cls-1" d="m2.37,54.93h-.26v-25.33c0-.07.06-.13.13-.13h66.8v-4.35h.26v4.48c0,.07-.06.13-.13.13H2.37v25.2Z"/>
      <g>
        <polygon class="cls-1" points="90.78 3.58 97.4 3.58 97.4 10.2 90.78 3.58"/>
        <path class="cls-1" d="m97.4,10.33s-.07-.01-.09-.04l-6.62-6.62s-.05-.09-.03-.14c.02-.05.07-.08.12-.08h6.62c.07,0,.13.06.13.13v6.62c0,.05-.03.1-.08.12-.02,0-.03,0-.05,0Zm-6.31-6.62l6.18,6.18V3.71h-6.18Z"/>
      </g>
      <g>
        <polygon class="cls-1" points="61.41 1.89 80.08 1.89 79.22 2.75 62.27 2.75 61.41 1.89"/>
        <path class="cls-1" d="m79.22,2.88h-16.95s-.07-.01-.09-.04l-.86-.86s-.05-.09-.03-.14c.02-.05.07-.08.12-.08h18.67c.05,0,.1.03.12.08.02.05,0,.1-.03.14l-.86.86s-.06.04-.09.04Zm-16.9-.26h16.84l.6-.6h-18.05l.6.6Z"/>
      </g>
      <g>
        <polygon class="cls-1" points="72.85 23.4 65.53 23.4 66.39 22.54 71.99 22.54 72.85 23.4"/>
        <path class="cls-1" d="m72.85,23.53h-7.32c-.05,0-.1-.03-.12-.08-.02-.05,0-.1.03-.14l.86-.86s.06-.04.09-.04h5.6s.07.01.09.04l.86.86s.05.09.03.14c-.02.05-.07.08-.12.08Zm-7.01-.26h6.7l-.6-.6h-5.5l-.6.6Z"/>
      </g>
      <g>
        <g>
          <path class="cls-1" d="m70.5.13h-16.77c-.67.67-1.05,1.05-1.72,1.72h20.21l-1.72-1.72Z"/>
          <path class="cls-1" d="m72.22,1.98h-20.21c-.05,0-.1-.03-.12-.08-.02-.05,0-.1.03-.14l1.72-1.72s.06-.04.09-.04h16.77s.07.01.09.04l1.72,1.72s.05.09.03.14c-.02.05-.07.08-.12.08Zm-19.9-.26h19.58l-1.46-1.46h-16.66l-1.46,1.46Z"/>
        </g>
        <g>
          <polygon class="cls-1" points="51.94 .13 50.22 1.85 49.45 1.85 51.16 .13 51.94 .13"/>
          <path class="cls-1" d="m50.27,1.98h-1.14l1.98-1.98h1.14l-1.98,1.98Zm-.52-.26h.41l1.46-1.46h-.41l-1.46,1.46Z"/>
        </g>
        <g>
          <polygon class="cls-1" points="49.37 .13 47.65 1.85 46.88 1.85 48.59 .13 49.37 .13"/>
          <path class="cls-1" d="m47.7,1.98h-1.14l1.98-1.98h1.14l-1.98,1.98Zm-.52-.26h.41l1.46-1.46h-.41l-1.46,1.46Z"/>
        </g>
        <g>
          <polygon class="cls-1" points="46.8 .13 45.08 1.85 44.3 1.85 46.02 .13 46.8 .13"/>
          <path class="cls-1" d="m45.13,1.98h-1.14l1.98-1.98h1.14l-1.98,1.98Zm-.52-.26h.41l1.46-1.46h-.41l-1.46,1.46Z"/>
        </g>
      </g>
      <g>
        <path class="cls-1" d="m60.8,25.12h16.77c.67-.67,1.05-1.05,1.72-1.72h-20.21c.67.67,1.05,1.05,1.72,1.72Z"/>
        <path class="cls-1" d="m77.57,25.24h-16.77s-.07-.01-.09-.04l-1.72-1.72s-.05-.09-.03-.14c.02-.05.07-.08.12-.08h20.21c.05,0,.1.03.12.08.02.05,0,.1-.03.14l-1.72,1.72s-.06.04-.09.04Zm-16.72-.26h16.66l1.46-1.46h-19.58l1.46,1.46Z"/>
      </g>
      <g>
        <g>
          <path class="cls-1" d="m4.36,58.03h-1.27v-.26h1.14v-1.14h.26v1.27c0,.07-.06.13-.13.13Z"/>
          <path class="cls-1" d="m1.39,58.03H.13c-.07,0-.13-.06-.13-.13v-1.27h.26v1.14h1.14v.26Z"/>
          <path class="cls-1" d="m4.49,54.94h-.26v-1.14h-1.14v-.26h1.27c.07,0,.13.06.13.13v1.27Z"/>
          <path class="cls-1" d="m.26,54.94h-.26v-1.27c0-.07.06-.13.13-.13h1.27v.26H.26v1.14Z"/>
        </g>
        <path class="cls-1" d="m3.23,56.9h-1.98c-.07,0-.13-.06-.13-.13v-1.98c0-.07.06-.13.13-.13h1.98c.07,0,.13.06.13.13v1.98c0,.07-.06.13-.13.13Zm-1.85-.26h1.72v-1.72h-1.72v1.72Z"/>
      </g>
      <g>
        <rect class="cls-1" x="30.59" y="19.28" width=".26" height="1.03"/>
        <rect class="cls-1" x="29.8" y="19.28" width=".26" height="1.03"/>
        <rect class="cls-1" x="29" y="19.28" width=".26" height="1.03"/>
        <rect class="cls-1" x="28.21" y="19.28" width=".26" height="1.03"/>
      </g>
      <g>
        <polygon class="cls-1" points="3.6 6.36 3.6 11.71 2.74 10.94 2.74 7.22 3.6 6.36"/>
        <path class="cls-1" d="m3.6,11.84s-.06-.01-.09-.03l-.86-.77s-.04-.06-.04-.1v-3.72s.01-.07.04-.09l.86-.86s.09-.05.14-.03.08.07.08.12v5.35c0,.05-.03.1-.08.12-.02,0-.03.01-.05.01Zm-.73-.96l.6.54v-4.75l-.6.6v3.6Z"/>
      </g>
      <g>
        <polygon class="cls-1" points="99.12 19.46 99.12 14.11 99.98 14.88 99.98 18.6 99.12 19.46"/>
        <path class="cls-1" d="m99.12,19.59s-.03,0-.05,0c-.05-.02-.08-.07-.08-.12v-5.35c0-.05.03-.1.08-.12.05-.02.1-.01.14.02l.86.77s.04.06.04.1v3.72s-.01.07-.04.09l-.86.86s-.06.04-.09.04Zm.13-5.19v4.75l.6-.6v-3.6l-.6-.54Z"/>
      </g>
      <rect class="cls-1" x="88.08" y="1.33" width=".26" height="1.03"/>
      <path class="cls-1" d="m1.51,31.31h-.26v-2.58c0-.07.06-.13.13-.13h2.58v.26H1.51v2.45Z"/>
      <path class="cls-1" d="m70.21,30.74h-2.58v-.26h2.45v-2.45h.26v2.58c0,.07-.06.13-.13.13Z"/>
    </g>
  </g>
</svg>