<?xml version="1.0" encoding="UTF-8"?>
<svg id="Layer_2" data-name="Layer 2" xmlns="http://www.w3.org/2000/svg" viewBox="0 0 53.51 58.27">
  <defs>
    <style>
      .cls-1 {
        fill: #8cd5cf;
      }

      .cls-2 {
        fill: #163c5b;
      }
    </style>
  </defs>
  <g id="Layer_1-2" data-name="Layer 1">
    <g>
      <polygon class="cls-2" points="42.26 10.14 42.26 21.29 29.28 34.26 .13 34.26 .13 26.3 .99 25.44 .99 13.92 .13 13.06 .13 13.06 .13 10.14 6.67 3.59 35.71 3.59 42.26 10.14"/>
      <path class="cls-1" d="m3.57,35.93s-.07-.08-.12-.08H.13c-.07,0-.13.06-.13.13v.69c0,.07.06.13.13.13h2.63s.07-.01.09-.04l.69-.69s.05-.09.03-.14Z"/>
      <path class="cls-1" d="m7.45,3l-.18-.18,1.03-1.03s.06-.04.09-.04h12.39s.85-.85.85-.85c.02-.02.06-.04.09-.04h5.22s.07.01.09.04l.82.82h8.6s0,.26,0,.26h-8.65s-.07-.01-.09-.04l-.82-.82h-5.12s-.85.85-.85.85c-.02.02-.06.04-.09.04h-12.39s-.99,1-.99,1Z"/>
      <path class="cls-1" d="m.13,36.11v-.26h29.81s13.91-13.91,13.91-13.91v-10.82s.01-.07.04-.09l.82-.82v-3.26s.26,0,.26,0v3.31s-.01.07-.04.09l-.82.82v10.82s-.01.07-.04.09l-13.98,13.98s-.06.04-.09.04H.13Z"/>
      <path class="cls-1" d="m37.83,44.34l-1.82-1.82s-.04-.06-.04-.09v-2.58s.26,0,.26,0v2.52l1.78,1.78-.18.18Z"/>
      <path class="cls-1" d="m48.81,53.75l-11.69-11.69s-.04-.06-.04-.09v-10.74h.26v10.69s11.65,11.65,11.65,11.65l-.18.18Z"/>
      <path class="cls-1" d="m15.4,36.97s-.07-.01-.09-.04l-.86-.86.18-.18.82.82h13.63s.82-.82.82-.82l.18.18-.8.8c-.01.06-.06.1-.13.1h-13.76Z"/>
      <g>
        <path class="cls-1" d="m38.12,30.26l-1.93,1.93,1.93-1.93Z"/>
        <rect class="cls-1" x="35.78" y="31.1" width="2.73" height=".26" transform="translate(-11.2 35.43) rotate(-45.02)"/>
      </g>
      <g>
        <path class="cls-1" d="m44.02,21.85s-.1,0-.14.03l-10.22,10.22s-.05.09-.03.14c.02.05.07.08.12.08h1.22s.07-.01.09-.04l2.64-2.64h1.16s.07-.01.09-.04l5.11-5.11s.04-.06.04-.09v-2.43c0-.05-.03-.1-.08-.12Z"/>
        <path class="cls-1" d="m43.88,9.49s.06.04.09.04c.02,0,.03,0,.05,0,.05-.02.08-.07.08-.12v-3.29s-.01-.07-.04-.09l-4.24-4.24s-.04-.03-.06-.03l-.85-.85s-.06-.04-.09-.04h-2.87l-.82-.82s-.06-.04-.09-.04h-12.46s-.07.01-.09.04l-.86.86s-.05.09-.03.14c.02.05.07.08.12.08h5.19l.82.82s.06.04.09.04h8.54l7.52,7.52Z"/>
      </g>
      <rect class="cls-1" x="43.8" y="11.91" width="1.22" height=".26" transform="translate(4.49 34.93) rotate(-45)"/>
      <rect class="cls-1" x="43.8" y="13.26" width="1.22" height=".26" transform="translate(3.54 35.32) rotate(-45)"/>
      <rect class="cls-1" x="43.8" y="14.62" width="1.22" height=".26" transform="translate(2.58 35.72) rotate(-45)"/>
      <rect class="cls-1" x="43.8" y="15.97" width="1.22" height=".26" transform="translate(1.62 36.11) rotate(-45)"/>
      <rect class="cls-1" x="43.8" y="17.32" width="1.22" height=".26" transform="translate(.67 36.51) rotate(-45)"/>
      <g>
        <g>
          <path class="cls-1" d="m50.39,58.27s-.07-.01-.09-.04l-.9-.9.18-.18.8.8.8-.8.18.18-.9.9s-.06.04-.09.04Z"/>
          <path class="cls-1" d="m52.58,56.14l-.18-.18.8-.8-.8-.8.18-.18.9.9c.05.05.05.13,0,.18l-.9.9Z"/>
          <path class="cls-1" d="m48.2,56.14l-.9-.9c-.05-.05-.05-.13,0-.18l.9-.9.18.18-.8.8.8.8-.18.18Z"/>
          <path class="cls-1" d="m51.2,53.14l-.8-.8-.8.8-.18-.18.9-.9s.13-.05.18,0l.9.9-.18.18Z"/>
        </g>
        <path class="cls-1" d="m50.39,56.27c-.3,0-.58-.12-.79-.33-.44-.44-.44-1.14,0-1.58.21-.21.49-.33.79-.33s.58.12.79.33c.44.44.44,1.14,0,1.58h0c-.21.21-.49.33-.79.33Zm0-1.98c-.23,0-.45.09-.61.25-.34.34-.34.88,0,1.22.16.16.38.25.61.25s.45-.09.61-.25c.34-.34.34-.88,0-1.22-.16-.16-.38-.25-.61-.25Z"/>
      </g>
      <rect class="cls-1" x="1.85" y="12.34" width="38.69" height=".26"/>
    </g>
  </g>
</svg>