<?xml version="1.0" encoding="UTF-8"?>
<svg id="Layer_2" data-name="Layer 2" xmlns="http://www.w3.org/2000/svg" viewBox="0 0 98.49 68.75">
  <defs>
    <style>
      .cls-1 {
        fill: #8cd5cf;
      }

      .cls-2 {
        fill: #163c5b;
      }
    </style>
  </defs>
  <g id="Layer_1-2" data-name="Layer 1">
    <g>
      <g>
        <polygon class="cls-2" points="78.54 35.31 78.54 44.26 79.4 45.12 79.4 58.84 74.77 63.47 48.53 63.47 47.67 62.61 35.29 62.61 34.43 63.47 8.19 63.47 3.57 58.84 3.57 55.69 4.43 54.84 4.43 40.85 3.57 39.99 3.57 28.99 8.19 24.37 22.88 24.37 26.58 28.07 56.38 28.07 60.09 24.37 74.77 24.37 79.4 28.99 79.4 34.45 78.54 35.31"/>
        <path class="cls-1" d="m59.47,22.56l-3.7-3.7s-.06-.04-.09-.04h-28.38s-.07.01-.09.04l-3.7,3.7c-.05.05-.05.13,0,.18l3.7,3.7s.06.04.09.04h28.38s.07-.01.09-.04l3.7-3.7c.05-.05.05-.13,0-.18Z"/>
        <path class="cls-1" d="m42.06,17.32l-.18-.18,7.6-7.6s.06-.04.09-.04h39.24l5.95-5.95.18.18-5.99,5.99s-.06.04-.09.04h-39.24l-7.56,7.56Z"/>
        <g>
          <path class="cls-1" d="m49.63,18.85l-.86-.86s-.06-.04-.09-.04h-20.55s-.07.01-.09.04l-.86.86s-.05.09-.03.14c.02.05.07.08.12.08h22.27c.05,0,.1-.03.12-.08.02-.05,0-.1-.03-.14Z"/>
          <path class="cls-1" d="m25.23,21.66H5.9s-.05,0-.05,0L0,27.51v5.85l1.98,1.98v-7.01l5.55-5.55h16.84s.07-.01.09-.04l.86-.86s.05-.09.03-.14-.07-.08-.12-.08Z"/>
        </g>
        <path class="cls-1" d="m75.48,65.31H7.48s-.07-.01-.09-.04l-5.63-5.63s-.04-.06-.04-.09v-4.57s.01-.07.04-.09l.82-.82v-12.45l-.82-.82s-.04-.06-.04-.09v-12.42s.01-.07.04-.09l5.63-5.63s.06-.04.09-.04h16.11v.26H7.53l-5.56,5.56v12.32l.82.82s.04.06.04.09v12.56s-.01.07-.04.09l-.82.82v4.46l5.56,5.56h67.89l5.56-5.56v-31.17l-5.56-5.56h-16.05v-.26h16.11s.07.01.09.04l5.63,5.63s.04.06.04.09v31.27s-.01.07-.04.09l-5.63,5.63s-.06.04-.09.04Z"/>
        <path class="cls-1" d="m70.07,66.17h-15.49v-.26h15.44l.82-.82.18.18-.86.86s-.06.04-.09.04Z"/>
        <rect class="cls-1" x="59.66" y="20.8" width="4.28" height=".26"/>
        <rect class="cls-1" x="1.72" y="42.42" width=".26" height="10.84"/>
        <g>
          <polygon class="cls-1" points=".13 35.03 1.85 36.75 1.85 37.52 .13 35.8 .13 35.03"/>
          <path class="cls-1" d="m1.98,37.83l-1.98-1.98v-1.14l1.98,1.98v1.14Zm-1.72-2.08l1.46,1.46v-.41l-1.46-1.46v.41Z"/>
        </g>
        <path class="cls-1" d="m49.96,18.18l-.82-.82h-20.41v-.26h20.46s.07.01.09.04l.86.86-.18.18Z"/>
        <path class="cls-1" d="m53.84,65.13s-.07-.08-.12-.08h-5.85l-.82-.82s-.06-.04-.09-.04h-10.96s-.07.01-.09.04l-.82.82H12.81c-.05,0-.1.03-.12.08s0,.1.03.14l.86.86s.06.04.09.04h3.03l.82.82s.06.04.09.04h12.31l1.68,1.68s.06.04.09.04h9.71s.07-.01.09-.04l1.68-1.68h1.43l-1.71,1.71h1.14l1.71-1.71h1.43l-1.71,1.71h1.14l1.71-1.71h1.43l-1.71,1.71h1.14l1.71-1.71h1.12s.07-.01.09-.04l1.72-1.72s.05-.09.03-.14Z"/>
        <g>
          <path class="cls-1" d="m98.36,3.77h-3.51c-.07,0-.13-.06-.13-.13V.13c0-.07.06-.13.13-.13h3.51c.07,0,.13.06.13.13v3.51c0,.07-.06.13-.13.13Zm-3.38-.26h3.25V.26h-3.25v3.25Z"/>
          <rect class="cls-1" x="95.76" y="1.04" width="1.68" height="1.68" transform="translate(193.2 3.77) rotate(180)"/>
        </g>
        <g>
          <polygon class="cls-1" points="80.99 55.55 82.1 54.43 82.1 53.68 80.99 54.8 80.99 55.55"/>
          <polygon class="cls-1" points="80.99 52.69 82.1 51.57 82.1 50.82 80.99 51.94 80.99 52.69"/>
          <polygon class="cls-1" points="80.99 54.12 82.1 53 82.1 52.25 80.99 53.37 80.99 54.12"/>
          <path class="cls-1" d="m82.92,31.63l-.82-.82v-2.89s-.01-.07-.04-.09l-7-7-.04-.04h-9.42l-.86.86h-6.53l1.12,1.12h16.09l5.56,5.56v6.77l-.82.82s-.04.06-.04.09v7.53s.01.07.04.09l.82.82v6.47c0,.05.03.1.08.12.02,0,.03,0,.05,0,.03,0,.07-.01.09-.04l.86-.86s.04-.06.04-.09v-4.33l.82-.82s.04-.06.04-.09v-13.11s-.01-.07-.04-.09Z"/>
        </g>
        <g>
          <rect class="cls-1" x="56.71" y="7.37" width=".86" height="4.47" transform="translate(66.74 -47.54) rotate(90)"/>
          <path class="cls-1" d="m59.5,10.16h-4.73v-1.12h4.73v1.12Zm-4.47-.26h4.21v-.6h-4.21v.6Z"/>
        </g>
        <g>
          <rect class="cls-1" x="81.11" y="7.37" width=".86" height="4.47" transform="translate(91.14 -71.94) rotate(90)"/>
          <path class="cls-1" d="m83.91,10.16h-4.73v-1.12h4.73v1.12Zm-4.47-.26h4.21v-.6h-4.21v.6Z"/>
        </g>
        <g>
          <rect class="cls-1" x="62.18" y="9.17" width=".86" height=".86" transform="translate(72.21 -53.01) rotate(90)"/>
          <path class="cls-1" d="m63.17,10.16h-1.12v-1.12h1.12v1.12Zm-.86-.26h.6v-.6h-.6v.6Z"/>
        </g>
      </g>
      <g>
        <path class="cls-1" d="m14.69,38.43h-2.62c-.07,0-.13-.06-.13-.13v-2.62h.26v2.49h2.49v.26Z"/>
        <path class="cls-1" d="m20.82,38.43h-2.62v-.26h2.49v-2.49h.26v2.62c0,.07-.06.13-.13.13Z"/>
        <path class="cls-1" d="m12.2,32.17h-.26v-2.62c0-.07.06-.13.13-.13h2.62v.26h-2.49v2.49Z"/>
        <path class="cls-1" d="m20.95,32.17h-.26v-2.49h-2.49v-.26h2.62c.07,0,.13.06.13.13v2.62Z"/>
      </g>
    </g>
  </g>
</svg>