<?xml version="1.0" encoding="UTF-8"?>
<svg id="Layer_2" data-name="Layer 2" xmlns="http://www.w3.org/2000/svg" viewBox="0 0 127.77 60.3">
  <defs>
    <style>
      .cls-1 {
        fill: #8cd5cf;
      }

      .cls-2 {
        fill: #163c5b;
      }
    </style>
  </defs>
  <g id="Layer_1-2" data-name="Layer 1">
    <g>
      <path class="cls-1" d="m114.02,58.52l-.22-.13,13.7-23.73-13.7-23.73.22-.13,13.74,23.79s.02.09,0,.13l-13.74,23.79Z"/>
      <polygon class="cls-2" points="125.66 34.66 112.91 56.73 108.44 56.73 107.58 55.88 95.53 55.88 94.67 56.73 36.74 56.73 24 34.66 36.74 12.59 62.27 12.59 63.27 14.31 66.67 20.21 97.05 20.21 97.9 21.07 113.59 21.07 114.45 20.21 117.31 20.21 125.66 34.66"/>
      <path class="cls-1" d="m61.24,55.14h-23.5s-.09-.02-.11-.06l-11.75-20.35s-.02-.09,0-.13l11.75-20.36s.07-.06.11-.06h23.5s.09.02.11.06l11.75,20.36s.02.09,0,.13l-11.75,20.35s-.07.06-.11.06Zm-23.43-.26h23.36l11.68-20.23-11.68-20.23h-23.36l-11.68,20.23,11.68,20.23Z"/>
      <polygon class="cls-1" points="20.29 34.79 10.68 34.79 10.68 10.86 3.55 3.73 3.73 3.55 10.94 10.76 10.94 34.53 20.29 34.53 20.29 34.79"/>
      <polygon class="cls-1" points="105.55 58.32 106.39 60.3 112.99 60.3 114.13 58.32 105.55 58.32"/>
      <polygon class="cls-1" points="90.88 58.32 90.24 59.44 108.34 59.44 108.98 58.32 90.88 58.32"/>
      <g>
        <g>
          <path class="cls-1" d="m89.97,58.45l-.5.86.5-.86Z"/>
          <path class="cls-1" d="m89.47,59.44s-.04,0-.06-.02c-.06-.04-.08-.11-.05-.18l.5-.86c.04-.06.11-.08.18-.05.06.04.08.11.05.18l-.5.86s-.07.06-.11.06Z"/>
        </g>
        <g>
          <path class="cls-1" d="m90.96,58.45l-.5.86.5-.86Z"/>
          <path class="cls-1" d="m90.46,59.44s-.04,0-.06-.02c-.06-.04-.08-.11-.05-.18l.5-.86c.04-.06.11-.08.18-.05.06.04.08.11.05.18l-.5.86s-.07.06-.11.06Z"/>
        </g>
        <g>
          <path class="cls-1" d="m88.98,58.45l-.5.86.5-.86Z"/>
          <path class="cls-1" d="m88.49,59.44s-.04,0-.06-.02c-.06-.04-.08-.11-.05-.18l.5-.86c.04-.06.11-.08.18-.05.06.04.08.11.05.18l-.5.86s-.07.06-.11.06Z"/>
        </g>
        <g>
          <path class="cls-1" d="m88,58.45l-.5.86.5-.86Z"/>
          <path class="cls-1" d="m87.5,59.44s-.04,0-.06-.02c-.06-.04-.08-.11-.05-.18l.5-.86c.04-.06.11-.08.18-.05.06.04.08.11.05.18l-.5.86s-.07.06-.11.06Z"/>
        </g>
        <g>
          <path class="cls-1" d="m87.01,58.45l-.5.86.5-.86Z"/>
          <path class="cls-1" d="m86.51,59.44s-.04,0-.06-.02c-.06-.04-.08-.11-.05-.18l.5-.86c.04-.06.11-.08.18-.05.06.04.08.11.05.18l-.5.86s-.07.06-.11.06Z"/>
        </g>
        <g>
          <path class="cls-1" d="m86.02,58.45l-.5.86.5-.86Z"/>
          <path class="cls-1" d="m85.53,59.44s-.04,0-.06-.02c-.06-.04-.08-.11-.05-.18l.5-.86c.04-.06.11-.08.18-.05.06.04.08.11.05.18l-.5.86s-.07.06-.11.06Z"/>
        </g>
        <g>
          <path class="cls-1" d="m85.04,58.45l-.5.86.5-.86Z"/>
          <path class="cls-1" d="m84.54,59.44s-.04,0-.06-.02c-.06-.04-.08-.11-.05-.18l.5-.86c.04-.06.11-.08.18-.05.06.04.08.11.05.18l-.5.86s-.07.06-.11.06Z"/>
        </g>
        <g>
          <path class="cls-1" d="m84.05,58.45l-.5.86.5-.86Z"/>
          <path class="cls-1" d="m83.55,59.44s-.04,0-.06-.02c-.06-.04-.08-.11-.05-.18l.5-.86c.04-.06.11-.08.18-.05.06.04.08.11.05.18l-.5.86s-.07.06-.11.06Z"/>
        </g>
      </g>
      <g>
        <polygon class="cls-1" points="80.66 9.02 50.13 9.02 51.27 11 81.8 11 80.66 9.02"/>
        <polygon class="cls-1" points="47.49 9.02 48.63 11 50.06 11 48.92 9.02 47.49 9.02"/>
        <polygon class="cls-1" points="44.85 9.02 45.99 11 47.42 11 46.28 9.02 44.85 9.02"/>
        <polygon class="cls-1" points="42.21 9.02 43.35 11 44.78 11 43.64 9.02 42.21 9.02"/>
      </g>
      <polygon class="cls-1" points="121.55 22.09 115 10.74 114.02 10.74 114.02 10.74 63.04 10.74 67.59 18.62 118.27 18.62 121.14 23.62 121.55 22.09"/>
      <polygon class="cls-1" points="31.96 51.63 31.55 53.15 33.69 56.86 34.98 56.86 31.96 51.63"/>
      <polygon class="cls-1" points="34.64 56.8 21.86 34.66 35.65 10.78 35.71 10.74 35.75 10.74 43.43 10.74 43.43 11 35.82 11 22.16 34.66 34.87 56.67 34.64 56.8"/>
      <path class="cls-1" d="m27.61,25.08s-.07-.06-.11-.06h-.86s-.09.02-.11.06l-1.75,3.04h-.78s-.09.02-.11.06l-3.67,6.35h-9.4c-.05,0-.1.03-.12.08-.02.05,0,.1.03.14l.86.86s.06.04.09.04h10.83s.09-.02.11-.06c.02-.04.02-.09,0-.13l-.46-.79,3.67-6.35s0-.01,0-.02l1.78-3.08s.02-.09,0-.13Z"/>
      <g>
        <polygon class="cls-1" points="97.45 18.36 98.56 19.48 107.78 19.48 108.9 18.36 97.45 18.36"/>
        <polygon class="cls-1" points="109.86 18.36 108.75 19.48 109.5 19.48 110.61 18.36 109.86 18.36"/>
        <polygon class="cls-1" points="111.58 18.36 110.46 19.48 111.21 19.48 112.33 18.36 111.58 18.36"/>
        <polygon class="cls-1" points="113.29 18.36 112.18 19.48 112.93 19.48 114.04 18.36 113.29 18.36"/>
      </g>
      <path class="cls-1" d="m107.64,58.54l-.82-.82h-10.52l-.82.82-.18-.18.86-.86s.06-.04.09-.04h10.63s.07.01.09.04l.86.86-.18.18Z"/>
      <g>
        <path class="cls-1" d="m.13,3.77c-.07,0-.13-.06-.13-.13V.13S.01.06.04.04c.02-.02.06-.04.09-.04h3.51c.07,0,.13.06.13.13v3.51s-.01.07-.04.09c-.02.02-.06.04-.09.04H.13ZM.26.26v3.25h3.25V.26H.26Z"/>
        <rect class="cls-1" x="1.04" y="1.04" width="1.68" height="1.68" transform="translate(3.77 3.77) rotate(180)"/>
      </g>
      <rect class="cls-1" x="82.3" y="9.02" width="19.21" height=".26"/>
      <rect class="cls-1" x="75.44" y="34.53" width="47.28" height=".26"/>
    </g>
  </g>
</svg>