<?xml version="1.0" encoding="UTF-8"?>
<svg id="Layer_2" data-name="Layer 2" xmlns="http://www.w3.org/2000/svg" viewBox="0 0 89.33 50.52">
  <defs>
    <style>
      .cls-1 {
        fill: #8cd5cf;
      }

      .cls-2 {
        fill: #163c5b;
      }
    </style>
  </defs>
  <g id="Layer_1-2" data-name="Layer 1">
    <g>
      <polygon class="cls-2" points="74.68 6.78 69.3 16.1 68.01 16.44 56.22 36.87 56.56 38.16 52.54 45.12 5.89 45.12 3.54 41.04 14.36 22.3 15.45 22 23.2 8.58 22.91 7.49 25.67 2.71 72.32 2.71 74.68 6.78"/>
      <rect class="cls-1" x="23.12" y="13.87" width="44.48" height=".26"/>
      <path class="cls-1" d="m87.32,46.36h-.26v-18.62h-19.37v-.26h19.5c.07,0,.13.06.13.13v18.75Z"/>
      <polygon class="cls-1" points="87.62 30.18 86.76 30.18 86.76 28.03 84.61 28.03 84.61 27.17 87.62 27.17 87.62 30.18"/>
      <g>
        <g>
          <path class="cls-1" d="m85.3,47.87l-.25-.07c.1-.38.3-.72.57-.99.27-.27.62-.47.99-.57l.07.25c-.33.09-.64.26-.88.51-.24.24-.42.55-.51.88Z"/>
          <path class="cls-1" d="m86.62,50.52c-.38-.1-.72-.3-.99-.57-.27-.27-.47-.62-.57-1l.25-.07c.09.33.26.64.51.88.24.24.55.42.88.51l-.07.25Z"/>
          <path class="cls-1" d="m87.77,50.52l-.07-.25c.33-.09.64-.26.88-.51.24-.24.42-.55.51-.88l.25.07c-.1.38-.3.72-.57.99-.27.27-.62.47-1,.57Z"/>
          <path class="cls-1" d="m89.09,47.87c-.09-.33-.26-.64-.51-.88-.24-.24-.55-.42-.88-.51l.07-.25c.38.1.72.3.99.57.27.27.47.62.57,1l-.25.07Z"/>
        </g>
        <g>
          <rect class="cls-1" x="86.15" y="48.25" width="2.09" height=".26"/>
          <rect class="cls-1" x="87.06" y="47.33" width=".26" height="2.09"/>
        </g>
      </g>
      <polygon class="cls-1" points="74.8 11.53 75.2 13.01 55.63 46.9 55.1 47.82 48.94 47.82 47.82 46.71 53.46 46.71 76.51 6.78 74.08 2.58 76.35 2.58 76.38 2.64 78.15 5.74 74.8 11.53"/>
      <path class="cls-1" d="m64.67,31.26s-.08-.02-.1-.05c-.03-.04-.04-.1,0-.14l4.77-8.25s.08-.07.13-.06c.05,0,.09.04.11.09l.31,1.17s0,.07-.01.1l-3.91,6.77s-.05.05-.08.06l-1.17.31s-.02,0-.03,0Zm4.72-8.05l-4.45,7.71.82-.22,3.85-6.67-.22-.82Z"/>
      <path class="cls-1" d="m14.9,15.3s-.01,0-.02,0c-.05,0-.09-.04-.11-.09l-.47-1.76s0-.07.01-.1l5.86-10.15s.05-.05.08-.06l1.76-.47c.05-.01.1,0,.14.05.03.04.04.1,0,.14l-7.15,12.38s-.07.06-.11.06Zm-.33-1.87l.38,1.41,6.84-11.84-1.41.38-5.81,10.06Z"/>
      <polygon class="cls-1" points="69.06 17.81 57.92 37.1 58.33 38.62 70.59 17.4 69.06 17.81"/>
      <polygon class="cls-1" points="21.08 6.83 12.87 21.05 14.4 20.64 21.49 8.35 21.08 6.83"/>
      <polygon class="cls-1" points="24.75 1.12 1.7 41.04 4.98 46.71 11.39 46.71 9.4 48.69 4.99 48.69 0 40.04 4.43 32.36 4.43 32.29 4.53 32.27 5.6 31.98 9.45 25.31 9.15 24.18 9.18 24.14 23.12 0 36.13 0 37.25 1.12 24.75 1.12"/>
      <g>
        <polygon class="cls-1" points="37.06 0 38.18 1.12 38.93 1.12 37.82 0 37.06 0"/>
        <polygon class="cls-1" points="38.78 0 39.9 1.12 40.65 1.12 39.53 0 38.78 0"/>
        <polygon class="cls-1" points="41.25 0 40.49 0 41.61 1.12 42.36 1.12 41.25 0"/>
      </g>
      <rect class="cls-1" x="13.82" y="46.7" width="7.08" height=".26"/>
      <g>
        <polygon class="cls-1" points="44.43 46.7 45.55 47.81 46.3 47.81 45.18 46.7 44.43 46.7"/>
        <polygon class="cls-1" points="46.9 46.7 46.15 46.7 47.26 47.81 48.01 47.81 46.9 46.7"/>
        <polygon class="cls-1" points="11.01 48.67 12.15 48.67 14.13 46.7 12.99 46.7 11.01 48.67"/>
        <path class="cls-1" d="m24.17,46.7h-3.79c-.05,0-.1.03-.12.08-.02.05,0,.1.03.14l.86.86s.06.04.09.04h2.07s.07-.01.09-.04l.86-.86s.05-.09.03-.14c-.02-.05-.07-.08-.12-.08Z"/>
      </g>
    </g>
  </g>
</svg>